<svg xmlns="http://www.w3.org/2000/svg" xmlns:xlink="http://www.w3.org/1999/xlink" xmlns:lucid="lucid" width="1325.71" height="334.42"><g transform="translate(-261.14400692079903 -200.12403100777198)" lucid:page-tab-id="0_0"><path d="M0 0h1870.4v1323.2H0z" fill="#fff"/><path d="M881.14 414.5c0-3.32 2.7-6 6-6h269.05c3.3 0 6 2.68 6 6v94.04c0 3.32-2.7 6-6 6H887.13c-3.3 0-6-2.68-6-6z" stroke="#000" stroke-width="3" fill="#b2d6ef"/><path d="M891.95 420.08c0-3.32 2.7-6 6-6h247.43c3.32 0 6 2.68 6 6v88.46c0 3.32-2.68 6-6 6H897.95c-3.3 0-6-2.68-6-6z" stroke="#000" stroke-opacity="0" stroke-width="3" fill-opacity="0"/><use xlink:href="#a" transform="matrix(1,0,0,1,896.9535184184917,419.07751937967265) translate(90.46296296296296 49.05902777777778)"/><path d="M476.48 226.12c0-3.3 2.7-6 6-6h269.05c3.3 0 6 2.7 6 6v94.05c0 3.3-2.7 6-6 6H482.48c-3.3 0-6-2.7-6-6z" stroke="#000" stroke-width="3" fill="#e5e5e5"/><path d="M487.3 228.9c0-3.3 2.68-6 6-6H740.7c3.3 0 6 2.7 6 6v88.48c0 3.3-2.7 6-6 6H493.3c-3.32 0-6-2.7-6-6z" stroke="#000" stroke-opacity="0" stroke-width="3" fill-opacity="0"/><use xlink:href="#b" transform="matrix(1,0,0,1,492.2888311991024,227.9147286821912) translate(56.512345679012356 49.05902777777778)"/><use xlink:href="#c" transform="matrix(1,0,0,1,492.2888311991024,227.9147286821912) translate(141.6358024691358 49.05902777777778)"/><path d="M476.48 414.5c0-3.32 2.7-6 6-6h269.05c3.3 0 6 2.68 6 6v94.04c0 3.32-2.7 6-6 6H482.48c-3.3 0-6-2.68-6-6z" stroke="#000" stroke-width="3" fill="#e5e5e5"/><path d="M487.3 420.08c0-3.32 2.68-6 6-6H740.7c3.3 0 6 2.68 6 6v88.46c0 3.32-2.7 6-6 6H493.3c-3.32 0-6-2.68-6-6z" stroke="#000" stroke-opacity="0" stroke-width="3" fill-opacity="0"/><use xlink:href="#d" transform="matrix(1,0,0,1,492.2888311991775,419.0775193798028) translate(3.6111111111111143 49.05902777777778)"/><use xlink:href="#e" transform="matrix(1,0,0,1,492.2888311991775,419.0775193798028) translate(163.79629629629628 49.05902777777778)"/><path d="M1285.8 414.5c0-3.32 2.7-6 6-6h269.06c3.3 0 6 2.68 6 6v94.04c0 3.32-2.7 6-6 6H1291.8c-3.3 0-6-2.68-6-6z" stroke="#000" stroke-width="3" fill="#e5e5e5"/><path d="M1296.62 420.08c0-3.32 2.68-6 6-6h247.43c3.3 0 6 2.68 6 6v88.46c0 3.32-2.7 6-6 6h-247.43c-3.32 0-6-2.68-6-6z" stroke="#000" stroke-opacity="0" stroke-width="3" fill-opacity="0"/><use xlink:href="#f" transform="matrix(1,0,0,1,1301.6182056378823,419.07751937967276) translate(35.09259259259258 49.05902777777778)"/><use xlink:href="#g" transform="matrix(1,0,0,1,1301.6182056378823,419.07751937967276) translate(133.6111111111111 49.05902777777778)"/><path d="M777.53 273.15h238.14c3.3 0 6 2.68 6 6V388.5" stroke="#000" stroke-width="2" fill="none"/><path d="M762.26 273.15l14.27-4.64v9.28zM1021.67 403.76l-4.64-14.27h9.27z" stroke="#000" stroke-width="2"/><path d="M777.53 461.52h83.6" stroke="#000" stroke-width="2" fill="none"/><path d="M762.26 461.52l14.27-4.64v9.27zM876.4 461.52l-14.26 4.63v-9.27z" stroke="#000" stroke-width="2"/><path d="M1182.2 464.3h83.6" stroke="#000" stroke-width="2" fill="none"/><path d="M1166.93 464.3l14.26-4.63v9.28zM1281.07 464.3l-14.26 4.65v-9.28z" stroke="#000" stroke-width="2"/><path d="M303.6 370.28h-20.75c-.95 0-1.7-.77-1.7-1.7v-2.54c0-9.5 6.23-17.44 15.48-19.67.43-.1.82-.05 1.22.17 2.72 1.46 5.67 1.46 8.4 0 .4-.22.78-.27 1.2-.17 2.44.6 4.44 1.46 6.5 2.85l-1.9 2.83c-1.54-1-2.98-1.68-4.8-2.16-3.43 1.57-6.98 1.57-10.42 0-7.38 2.05-12.27 8.5-12.27 16.14v.84h19.03z" stroke="#fff" stroke-opacity="0" fill="#232f3e"/><path d="M302.02 350.96c-6.17 0-11.17-5-11.17-11.15 0-6.14 5-11.13 11.17-11.13 6.17-.07 11.2 4.88 11.26 11 .05 4.27-2.1 7.9-5.85 9.9-1.73.97-3.4 1.4-5.4 1.4zm0-18.9c-4.3 0-7.83 3.45-7.85 7.75 0 2.93 1.48 5.43 4.06 6.8 2.44 1.33 5.14 1.33 7.58 0 2.6-1.4 4.12-3.93 4.07-6.9-.04-4.26-3.57-7.67-7.85-7.62zM359.47 370.28h-20.75v-3.4h19.04v-.84c0-7.66-4.9-14.1-12.27-16.16-3.46 1.6-7 1.6-10.46 0-1.8.5-3.3 1.2-4.84 2.27l-1.94-2.8c2.07-1.43 4.08-2.34 6.5-2.97.44-.1.87-.04 1.26.17 2.7 1.46 5.7 1.46 8.42 0 .4-.2.8-.26 1.22-.17 9.24 2.23 15.48 10.18 15.48 19.66v2.54c0 .93-.75 1.68-1.67 1.7z" stroke="#fff" stroke-opacity="0" fill="#232f3e"/><path d="M340.23 350.96c-6.22 0-11.24-5.05-11.24-11.25s5.06-11.2 11.27-11.2c6.2 0 11.23 5.05 11.23 11.25 0 4.22-2.13 7.82-5.85 9.84-1.75.93-3.44 1.36-5.42 1.36zm0-18.9c-4.3 0-7.8 3.44-7.84 7.76-.03 2.92 1.46 5.4 4.04 6.78 2.44 1.33 5.14 1.33 7.6 0 2.62-1.4 4.13-3.95 4.1-6.94-.1-4.27-3.64-7.68-7.9-7.6zM348.33 408.5H293.9c-.94 0-1.7-.75-1.7-1.7v-3.6c-.05-13.1 8.62-24.1 21.34-27.18.46-.13.87-.07 1.27.13 4.06 2.18 8.5 2.18 12.6 0 .36-.2.76-.26 1.22-.13 12.78 3.06 21.45 14.06 21.4 27.17v3.6c0 .95-.76 1.7-1.7 1.7zm-52.7-3.4h50.97v-1.9c0-11.27-7.28-20.74-18.2-23.67-4.8 2.3-9.83 2.3-14.63 0-10.92 2.93-18.15 12.4-18.15 23.66z" stroke="#fff" stroke-opacity="0" fill="#232f3e"/><path d="M321.17 381.14c-2.7 0-5-.58-7.4-1.87-7.4-4.07-10.14-13.33-6.1-20.77 4.08-7.4 13.37-10.12 20.82-6.08 7.4 4.07 10.14 13.33 6.1 20.77-1.48 2.68-3.4 4.6-6.1 6.07-2.37 1.3-4.67 1.87-7.33 1.87zm0-26.76c-4.45-.07-8.28 2.17-10.43 6.08-3.06 5.66-.98 12.76 4.7 15.85 3.67 1.96 7.72 1.96 11.4 0 3.95-2.14 6.22-5.96 6.16-10.42-.1-6.43-5.4-11.6-11.83-11.5z" stroke="#fff" stroke-opacity="0" fill="#232f3e"/><path d="M359.92 370.28H320.2c-.67 0-1.22-.55-1.22-1.23v-2.64c-.04-9.54 6.28-17.56 15.56-19.82.33-.1.63-.04.92.1 2.96 1.6 6.2 1.6 9.2 0 .25-.14.55-.2.88-.1 9.32 2.24 15.65 10.26 15.6 19.83v2.65c0 .68-.54 1.23-1.22 1.23zm-38.45-2.47h37.2v-1.4c0-8.2-5.33-15.1-13.3-17.25-3.5 1.68-7.16 1.68-10.66 0-7.96 2.14-13.23 9.04-13.23 17.26z" stroke="#fff" stroke-opacity="0" stroke-width=".73" fill="#fff" fill-opacity="0"/><path d="M322.1 370.28h-39.73c-.68 0-1.23-.55-1.23-1.23v-2.64c-.04-9.54 6.3-17.56 15.56-19.82.34-.1.64-.04.93.1 2.95 1.6 6.2 1.6 9.2 0 .25-.14.54-.2.88-.1 9.33 2.24 15.65 10.26 15.6 19.83v2.65c0 .68-.54 1.23-1.2 1.23zm-38.47-2.47h37.2v-1.4c0-8.2-5.32-15.1-13.3-17.25-3.5 1.68-7.16 1.68-10.66 0-7.97 2.14-13.24 9.04-13.24 17.26z" stroke="#fff" stroke-opacity="0" stroke-width=".73" fill="#fff" fill-opacity="0"/><use xlink:href="#h" transform="matrix(1,0,0,1,251.14400692079903,417.49612403096427) translate(31.790123456790127 17.77777777777778)"/><path d="M339.03 310.16v-31c0-3.33 2.7-6 6-6h128.95" stroke="#000" stroke-width="2" fill="none"/><path d="M339.03 325.42l-4.63-14.26h9.27z" stroke="#000" stroke-width="2"/><path d="M474.98 274.15h-1.03v-2h1.03z"/><path d="M379.65 368.5h32.4c3.33 0 6 2.68 6 6v73.46c0 3.3 2.7 6 6 6h32.43" stroke="#000" stroke-width="2" fill="none"/><path d="M364.38 368.5l14.27-4.64v9.27zM471.74 453.96l-14.26 4.63v-9.28z" stroke="#000" stroke-width="2"/><defs><path d="M30 0v-248h187v28H63v79h144v27H63v87h162V0H30" id="i"/><path d="M117-194c89-4 53 116 60 194h-32v-121c0-31-8-49-39-48C34-167 62-67 57 0H25l-1-190h30c1 10-1 24 2 32 11-22 29-35 61-36" id="j"/><path d="M177-190C167-65 218 103 67 71c-23-6-38-20-44-43l32-5c15 47 100 32 89-28v-30C133-14 115 1 83 1 29 1 15-40 15-95c0-56 16-97 71-98 29-1 48 16 59 35 1-10 0-23 2-32h30zM94-22c36 0 50-32 50-73 0-42-14-75-50-75-39 0-46 34-46 75s6 73 46 73" id="k"/><path d="M24-231v-30h32v30H24zM24 0v-190h32V0H24" id="l"/><path d="M100-194c63 0 86 42 84 106H49c0 40 14 67 53 68 26 1 43-12 49-29l28 8c-11 28-37 45-77 45C44 4 14-33 15-96c1-61 26-98 85-98zm52 81c6-60-76-77-97-28-3 7-6 17-6 28h103" id="m"/><g id="a"><use transform="matrix(0.06172839506172839,0,0,0.06172839506172839,0,0)" xlink:href="#i"/><use transform="matrix(0.06172839506172839,0,0,0.06172839506172839,14.814814814814813,0)" xlink:href="#j"/><use transform="matrix(0.06172839506172839,0,0,0.06172839506172839,27.160493827160494,0)" xlink:href="#k"/><use transform="matrix(0.06172839506172839,0,0,0.06172839506172839,39.50617283950617,0)" xlink:href="#l"/><use transform="matrix(0.06172839506172839,0,0,0.06172839506172839,44.382716049382715,0)" xlink:href="#j"/><use transform="matrix(0.06172839506172839,0,0,0.06172839506172839,56.72839506172839,0)" xlink:href="#m"/></g><path d="M30 0v-248h33v221h125V0H30" id="n"/><path d="M141-36C126-15 110 5 73 4 37 3 15-17 15-53c-1-64 63-63 125-63 3-35-9-54-41-54-24 1-41 7-42 31l-33-3c5-37 33-52 76-52 45 0 72 20 72 64v82c-1 20 7 32 28 27v20c-31 9-61-2-59-35zM48-53c0 20 12 33 32 33 41-3 63-29 60-74-43 2-92-5-92 41" id="o"/><path d="M85-194c31 0 48 13 60 33l-1-100h32l1 261h-30c-2-10 0-23-3-31C134-8 116 4 85 4 32 4 16-35 15-94c0-66 23-100 70-100zm9 24c-40 0-46 34-46 75 0 40 6 74 45 74 42 0 51-32 51-76 0-42-9-74-50-73" id="p"/><g id="b"><use transform="matrix(0.06172839506172839,0,0,0.06172839506172839,0,0)" xlink:href="#n"/><use transform="matrix(0.06172839506172839,0,0,0.06172839506172839,12.345679012345679,0)" xlink:href="#o"/><use transform="matrix(0.06172839506172839,0,0,0.06172839506172839,24.691358024691358,0)" xlink:href="#j"/><use transform="matrix(0.06172839506172839,0,0,0.06172839506172839,37.03703703703704,0)" xlink:href="#p"/><use transform="matrix(0.06172839506172839,0,0,0.06172839506172839,49.382716049382715,0)" xlink:href="#l"/><use transform="matrix(0.06172839506172839,0,0,0.06172839506172839,54.25925925925926,0)" xlink:href="#j"/><use transform="matrix(0.06172839506172839,0,0,0.06172839506172839,66.60493827160494,0)" xlink:href="#k"/></g><path d="M30-248c87 1 191-15 191 75 0 78-77 80-158 76V0H30v-248zm33 125c57 0 124 11 124-50 0-59-68-47-124-48v98" id="q"/><g id="c"><use transform="matrix(0.06172839506172839,0,0,0.06172839506172839,0,0)" xlink:href="#q"/><use transform="matrix(0.06172839506172839,0,0,0.06172839506172839,14.814814814814813,0)" xlink:href="#o"/><use transform="matrix(0.06172839506172839,0,0,0.06172839506172839,27.160493827160494,0)" xlink:href="#k"/><use transform="matrix(0.06172839506172839,0,0,0.06172839506172839,39.50617283950617,0)" xlink:href="#m"/></g><path d="M212-179c-10-28-35-45-73-45-59 0-87 40-87 99 0 60 29 101 89 101 43 0 62-24 78-52l27 14C228-24 195 4 139 4 59 4 22-46 18-125c-6-104 99-153 187-111 19 9 31 26 39 46" id="r"/><path d="M100-194c62-1 85 37 85 99 1 63-27 99-86 99S16-35 15-95c0-66 28-99 85-99zM99-20c44 1 53-31 53-75 0-43-8-75-51-75s-53 32-53 75 10 74 51 75" id="s"/><path d="M210-169c-67 3-38 105-44 169h-31v-121c0-29-5-50-35-48C34-165 62-65 56 0H25l-1-190h30c1 10-1 24 2 32 10-44 99-50 107 0 11-21 27-35 58-36 85-2 47 119 55 194h-31v-121c0-29-5-49-35-48" id="t"/><path d="M84 4C-5 8 30-112 23-190h32v120c0 31 7 50 39 49 72-2 45-101 50-169h31l1 190h-30c-1-10 1-25-2-33-11 22-28 36-60 37" id="u"/><path d="M96-169c-40 0-48 33-48 73s9 75 48 75c24 0 41-14 43-38l32 2c-6 37-31 61-74 61-59 0-76-41-82-99-10-93 101-131 147-64 4 7 5 14 7 22l-32 3c-4-21-16-35-41-35" id="v"/><path d="M59-47c-2 24 18 29 38 22v24C64 9 27 4 27-40v-127H5v-23h24l9-43h21v43h35v23H59v120" id="w"/><g id="d"><use transform="matrix(0.06172839506172839,0,0,0.06172839506172839,0,0)" xlink:href="#r"/><use transform="matrix(0.06172839506172839,0,0,0.06172839506172839,15.987654320987653,0)" xlink:href="#s"/><use transform="matrix(0.06172839506172839,0,0,0.06172839506172839,28.333333333333332,0)" xlink:href="#t"/><use transform="matrix(0.06172839506172839,0,0,0.06172839506172839,46.79012345679012,0)" xlink:href="#t"/><use transform="matrix(0.06172839506172839,0,0,0.06172839506172839,65.24691358024691,0)" xlink:href="#u"/><use transform="matrix(0.06172839506172839,0,0,0.06172839506172839,77.5925925925926,0)" xlink:href="#j"/><use transform="matrix(0.06172839506172839,0,0,0.06172839506172839,89.93827160493828,0)" xlink:href="#l"/><use transform="matrix(0.06172839506172839,0,0,0.06172839506172839,94.81481481481482,0)" xlink:href="#v"/><use transform="matrix(0.06172839506172839,0,0,0.06172839506172839,105.92592592592594,0)" xlink:href="#o"/><use transform="matrix(0.06172839506172839,0,0,0.06172839506172839,118.27160493827162,0)" xlink:href="#w"/><use transform="matrix(0.06172839506172839,0,0,0.06172839506172839,124.44444444444446,0)" xlink:href="#l"/><use transform="matrix(0.06172839506172839,0,0,0.06172839506172839,129.320987654321,0)" xlink:href="#s"/><use transform="matrix(0.06172839506172839,0,0,0.06172839506172839,141.66666666666666,0)" xlink:href="#j"/></g><path d="M106-169C34-169 62-67 57 0H25v-261h32l-1 103c12-21 28-36 61-36 89 0 53 116 60 194h-32v-121c2-32-8-49-39-48" id="x"/><path d="M24 0v-261h32V0H24" id="y"/><g id="e"><use transform="matrix(0.06172839506172839,0,0,0.06172839506172839,0,0)" xlink:href="#r"/><use transform="matrix(0.06172839506172839,0,0,0.06172839506172839,15.987654320987653,0)" xlink:href="#x"/><use transform="matrix(0.06172839506172839,0,0,0.06172839506172839,28.333333333333332,0)" xlink:href="#o"/><use transform="matrix(0.06172839506172839,0,0,0.06172839506172839,40.67901234567901,0)" xlink:href="#j"/><use transform="matrix(0.06172839506172839,0,0,0.06172839506172839,53.02469135802469,0)" xlink:href="#j"/><use transform="matrix(0.06172839506172839,0,0,0.06172839506172839,65.37037037037037,0)" xlink:href="#m"/><use transform="matrix(0.06172839506172839,0,0,0.06172839506172839,77.71604938271605,0)" xlink:href="#y"/></g><path d="M160-131c35 5 61 23 61 61C221 17 115-2 30 0v-248c76 3 177-17 177 60 0 33-19 50-47 57zm-97-11c50-1 110 9 110-42 0-47-63-36-110-37v79zm0 115c55-2 124 14 124-45 0-56-70-42-124-44v89" id="z"/><path d="M114-163C36-179 61-72 57 0H25l-1-190h30c1 12-1 29 2 39 6-27 23-49 58-41v29" id="A"/><g id="f"><use transform="matrix(0.06172839506172839,0,0,0.06172839506172839,0,0)" xlink:href="#z"/><use transform="matrix(0.06172839506172839,0,0,0.06172839506172839,14.814814814814813,0)" xlink:href="#l"/><use transform="matrix(0.06172839506172839,0,0,0.06172839506172839,19.691358024691354,0)" xlink:href="#s"/><use transform="matrix(0.06172839506172839,0,0,0.06172839506172839,32.03703703703703,0)" xlink:href="#t"/><use transform="matrix(0.06172839506172839,0,0,0.06172839506172839,50.49382716049382,0)" xlink:href="#m"/><use transform="matrix(0.06172839506172839,0,0,0.06172839506172839,62.8395061728395,0)" xlink:href="#w"/><use transform="matrix(0.06172839506172839,0,0,0.06172839506172839,69.01234567901234,0)" xlink:href="#A"/><use transform="matrix(0.06172839506172839,0,0,0.06172839506172839,76.35802469135803,0)" xlink:href="#l"/><use transform="matrix(0.06172839506172839,0,0,0.06172839506172839,81.23456790123457,0)" xlink:href="#v"/></g><path d="M185-189c-5-48-123-54-124 2 14 75 158 14 163 119 3 78-121 87-175 55-17-10-28-26-33-46l33-7c5 56 141 63 141-1 0-78-155-14-162-118-5-82 145-84 179-34 5 7 8 16 11 25" id="B"/><path d="M115-194c55 1 70 41 70 98S169 2 115 4C84 4 66-9 55-30l1 105H24l-1-265h31l2 30c10-21 28-34 59-34zm-8 174c40 0 45-34 45-75s-6-73-45-74c-42 0-51 32-51 76 0 43 10 73 51 73" id="C"/><g id="g"><use transform="matrix(0.06172839506172839,0,0,0.06172839506172839,0,0)" xlink:href="#B"/><use transform="matrix(0.06172839506172839,0,0,0.06172839506172839,14.814814814814813,0)" xlink:href="#u"/><use transform="matrix(0.06172839506172839,0,0,0.06172839506172839,27.160493827160494,0)" xlink:href="#C"/><use transform="matrix(0.06172839506172839,0,0,0.06172839506172839,39.50617283950617,0)" xlink:href="#C"/><use transform="matrix(0.06172839506172839,0,0,0.06172839506172839,51.85185185185185,0)" xlink:href="#y"/><use transform="matrix(0.06172839506172839,0,0,0.06172839506172839,56.72839506172839,0)" xlink:href="#l"/><use transform="matrix(0.06172839506172839,0,0,0.06172839506172839,61.60493827160494,0)" xlink:href="#m"/><use transform="matrix(0.06172839506172839,0,0,0.06172839506172839,73.95061728395062,0)" xlink:href="#A"/></g><path fill="#333" d="M232-93c-1 65-40 97-104 97C67 4 28-28 28-90v-158h33c8 89-33 224 67 224 102 0 64-133 71-224h33v155" id="D"/><path fill="#333" d="M185-189c-5-48-123-54-124 2 14 75 158 14 163 119 3 78-121 87-175 55-17-10-28-26-33-46l33-7c5 56 141 63 141-1 0-78-155-14-162-118-5-82 145-84 179-34 5 7 8 16 11 25" id="E"/><path fill="#333" d="M30 0v-248h187v28H63v79h144v27H63v87h162V0H30" id="F"/><path fill="#333" d="M233-177c-1 41-23 64-60 70L243 0h-38l-65-103H63V0H30v-248c88 3 205-21 203 71zM63-129c60-2 137 13 137-47 0-61-80-42-137-45v92" id="G"/><g id="h"><use transform="matrix(0.06172839506172839,0,0,0.06172839506172839,0,0)" xlink:href="#D"/><use transform="matrix(0.06172839506172839,0,0,0.06172839506172839,15.987654320987653,0)" xlink:href="#E"/><use transform="matrix(0.06172839506172839,0,0,0.06172839506172839,30.80246913580247,0)" xlink:href="#F"/><use transform="matrix(0.06172839506172839,0,0,0.06172839506172839,45.61728395061728,0)" xlink:href="#G"/><use transform="matrix(0.06172839506172839,0,0,0.06172839506172839,61.60493827160493,0)" xlink:href="#E"/></g></defs></g></svg>