<svg xmlns="http://www.w3.org/2000/svg" xmlns:xlink="http://www.w3.org/1999/xlink" xmlns:lucid="lucid" width="1378.86" height="401.6"><g transform="translate(-250.48600173018633 -620)" lucid:page-tab-id="0_0"><path d="M0 0h1870.4v1323.2H0z" fill="#fff"/><path d="M891.63 834.37c0-3.3 2.7-6 6-6h269.05c3.3 0 6 2.7 6 6v94.05c0 3.3-2.7 6-6 6H897.63c-3.3 0-6-2.7-6-6z" stroke="#000" stroke-width="3" fill="#b2d6ef"/><path d="M902.44 839.95c0-3.3 2.7-6 6-6h247.43c3.3 0 6 2.7 6 6v88.47c0 3.3-2.7 6-6 6H908.44c-3.3 0-6-2.7-6-6z" stroke="#000" stroke-opacity="0" stroke-width="3" fill-opacity="0"/><use xlink:href="#a" transform="matrix(1,0,0,1,907.4395201486627,838.9534883719709) translate(90.46296296296296 49.05902777777778)"/><path d="M486.97 646c0-3.3 2.68-6 6-6H762c3.33 0 6 2.7 6 6v94.05c0 3.3-2.67 6-6 6H492.98c-3.32 0-6-2.7-6-6z" stroke="#000" stroke-width="3" fill="#e5e5e5"/><path d="M497.77 648.8c0-3.32 2.7-6 6-6H751.2c3.32 0 6 2.68 6 6v88.46c0 3.3-2.68 6-6 6H503.77c-3.3 0-6-2.7-6-6z" stroke="#000" stroke-opacity="0" stroke-width="3" fill-opacity="0"/><use xlink:href="#b" transform="matrix(1,0,0,1,502.7748329292378,647.7906976744372) translate(56.512345679012356 49.05902777777778)"/><use xlink:href="#c" transform="matrix(1,0,0,1,502.7748329292378,647.7906976744372) translate(141.6358024691358 49.05902777777778)"/><path d="M486.97 834.37c0-3.3 2.68-6 6-6H762c3.33 0 6 2.7 6 6v94.05c0 3.3-2.67 6-6 6H492.98c-3.32 0-6-2.7-6-6z" stroke="#000" stroke-width="3" fill="#e5e5e5"/><path d="M497.77 839.95c0-3.3 2.7-6 6-6H751.2c3.32 0 6 2.7 6 6v88.47c0 3.3-2.68 6-6 6H503.77c-3.3 0-6-2.7-6-6z" stroke="#000" stroke-opacity="0" stroke-width="3" fill-opacity="0"/><use xlink:href="#d" transform="matrix(1,0,0,1,502.77483292935426,838.9534883720873) translate(3.6111111111111143 49.05902777777778)"/><use xlink:href="#e" transform="matrix(1,0,0,1,502.77483292935426,838.9534883720873) translate(163.79629629629628 49.05902777777778)"/><path d="M1296.3 834.37c0-3.3 2.68-6 6-6h269.04c3.32 0 6 2.7 6 6v94.05c0 3.3-2.68 6-6 6H1302.3c-3.32 0-6-2.7-6-6z" stroke="#000" stroke-width="3" fill="#e5e5e5"/><path d="M1307.1 839.95c0-3.3 2.7-6 6-6h247.43c3.32 0 6 2.7 6 6v88.47c0 3.3-2.68 6-6 6H1313.1c-3.3 0-6-2.7-6-6z" stroke="#000" stroke-opacity="0" stroke-width="3" fill-opacity="0"/><use xlink:href="#f" transform="matrix(1,0,0,1,1312.1042073680878,838.9534883719709) translate(35.09259259259258 49.05902777777778)"/><use xlink:href="#g" transform="matrix(1,0,0,1,1312.1042073680878,838.9534883719709) translate(133.6111111111111 49.05902777777778)"/><path d="M788 881.4h83.62" stroke="#000" stroke-width="2" fill="none"/><path d="M772.75 881.4l14.26-4.64v9.27zM886.9 881.4l-14.27 4.63v-9.27z" stroke="#000" stroke-width="2"/><path d="M1192.68 884.2h83.6" stroke="#000" stroke-width="2" fill="none"/><path d="M1177.4 884.2l14.28-4.65v9.27zM1291.56 884.2l-14.27 4.62v-9.27z" stroke="#000" stroke-width="2"/><path d="M292.93 795.74H272.2c-.96 0-1.7-.77-1.7-1.7v-2.54c0-9.5 6.22-17.44 15.47-19.67.43-.1.82-.05 1.22.17 2.7 1.46 5.67 1.46 8.4 0 .38-.22.78-.27 1.2-.17 2.43.6 4.43 1.46 6.5 2.85l-1.9 2.83c-1.55-1-3-1.67-4.8-2.15-3.44 1.58-6.98 1.58-10.43 0-7.38 2.06-12.27 8.5-12.27 16.15v.84h19.03z" stroke="#fff" stroke-opacity="0" fill="#232f3e"/><path d="M291.36 776.42c-6.17 0-11.17-5-11.17-11.15s5-11.15 11.16-11.15c6.17-.06 11.2 4.9 11.26 11.02.05 4.25-2.1 7.9-5.85 9.9-1.73.95-3.4 1.38-5.4 1.38zm0-18.9c-4.3 0-7.83 3.45-7.85 7.75 0 2.92 1.5 5.42 4.07 6.8 2.45 1.32 5.14 1.32 7.58 0 2.6-1.4 4.1-3.95 4.06-6.9-.03-4.27-3.55-7.68-7.84-7.64zM348.8 795.74h-20.74v-3.4h19.04v-.84c0-7.66-4.9-14.1-12.27-16.16-3.45 1.6-7 1.6-10.45 0-1.8.5-3.3 1.2-4.84 2.27l-1.94-2.8c2.08-1.43 4.08-2.34 6.5-2.96.44-.1.87-.05 1.26.17 2.7 1.47 5.7 1.47 8.42 0 .4-.2.8-.25 1.22-.16 9.24 2.23 15.5 10.18 15.5 19.66v2.54c0 .93-.77 1.67-1.7 1.7z" stroke="#fff" stroke-opacity="0" fill="#232f3e"/><path d="M329.57 776.42c-6.2 0-11.23-5.06-11.23-11.26s5.06-11.2 11.27-11.2c6.23 0 11.25 5.05 11.25 11.25 0 4.23-2.14 7.83-5.86 9.85-1.76.94-3.45 1.37-5.43 1.37zm0-18.9c-4.3-.02-7.8 3.44-7.84 7.76-.02 2.92 1.47 5.4 4.06 6.78 2.42 1.32 5.12 1.32 7.57 0 2.64-1.4 4.15-3.95 4.1-6.94-.1-4.27-3.62-7.68-7.9-7.6zM337.67 833.95h-54.44c-.92 0-1.68-.75-1.68-1.7v-3.6c-.05-13.08 8.62-24.08 21.33-27.18.46-.13.87-.06 1.27.13 4.05 2.18 8.5 2.18 12.6 0 .35-.2.75-.26 1.22-.13 12.77 3.06 21.44 14.06 21.38 27.18v3.6c0 .95-.75 1.7-1.68 1.7zm-52.7-3.38h50.97v-1.92c0-11.26-7.28-20.73-18.2-23.66-4.8 2.3-9.83 2.3-14.63 0-10.9 2.92-18.14 12.4-18.14 23.65z" stroke="#fff" stroke-opacity="0" fill="#232f3e"/><path d="M310.5 806.6c-2.7 0-5-.6-7.38-1.87-7.42-4.07-10.15-13.34-6.1-20.77 4.08-7.4 13.37-10.12 20.82-6.08 7.4 4.06 10.14 13.33 6.1 20.76-1.48 2.7-3.4 4.62-6.1 6.1-2.37 1.27-4.66 1.86-7.33 1.86zm0-26.77c-4.44-.06-8.27 2.17-10.42 6.1-3.06 5.65-.98 12.74 4.7 15.83 3.67 1.96 7.72 1.96 11.4 0 3.95-2.14 6.22-5.96 6.16-10.43-.1-6.42-5.4-11.6-11.83-11.5z" stroke="#fff" stroke-opacity="0" fill="#232f3e"/><path d="M349.26 795.74h-39.72c-.67 0-1.22-.55-1.22-1.24v-2.63c-.04-9.55 6.28-17.57 15.56-19.83.34-.1.63-.05.93.1 2.96 1.6 6.2 1.6 9.2 0 .25-.15.55-.2.88-.1 9.32 2.23 15.65 10.26 15.6 19.83v2.63c0 .7-.54 1.24-1.22 1.24zm-38.45-2.47H348v-1.4c0-8.22-5.3-15.13-13.28-17.26-3.5 1.7-7.17 1.7-10.67 0-7.97 2.14-13.24 9.05-13.24 17.27z" stroke="#fff" stroke-opacity="0" stroke-width=".73" fill="#fff" fill-opacity="0"/><path d="M311.43 795.74H271.7c-.67 0-1.2-.55-1.2-1.24v-2.63c-.06-9.55 6.27-17.57 15.55-19.83.33-.1.63-.05.92.1 2.95 1.6 6.2 1.6 9.2 0 .25-.15.54-.2.88-.1 9.32 2.23 15.64 10.26 15.6 19.83v2.63c0 .7-.55 1.24-1.22 1.24zm-38.46-2.47h37.2v-1.4c0-8.22-5.32-15.13-13.3-17.26-3.5 1.7-7.16 1.7-10.66 0-7.96 2.14-13.23 9.05-13.23 17.27z" stroke="#fff" stroke-opacity="0" stroke-width=".73" fill="#fff" fill-opacity="0"/><path d="M328.37 735.6v-36.58c0-3.3 2.7-6 6-6h132.6" stroke="#000" stroke-width="2" fill="none"/><path d="M328.37 750.88l-4.63-14.27H333zM482.23 693.02l-14.27 4.64v-9.27z" stroke="#000" stroke-width="2"/><path d="M310.5 852.46v22.94c0 3.3 2.67 6 6 6h150.46" stroke="#000" stroke-width="2" fill="none"/><path d="M310.5 837.2l4.62 14.26h-9.27zM482.23 881.4l-14.27 4.63v-9.27z" stroke="#000" stroke-width="2"/><path d="M350.5 797.3h86.4v36.65h-86.4z" fill="#fff" fill-opacity="0"/><use xlink:href="#h" transform="matrix(1,0,0,1,355.4860017301864,802.2868217053043) translate(0 17.77777777777778)"/><path d="M1609.34 991.44c0 5.6-22.13 10.16-49.43 10.16-27.28 0-49.4-4.55-49.4-10.16v-81.28c0-5.6 22.12-10.16 49.4-10.16 27.3 0 49.44 4.55 49.44 10.16z" stroke="#5e5e5e" stroke-width="3" fill="#ffeca9"/><path d="M1609.34 910.16c0 5.6-22.13 10.16-49.43 10.16-27.28 0-49.4-4.55-49.4-10.16" stroke="#5e5e5e" stroke-width="3" fill="none"/><use xlink:href="#i" transform="matrix(1,0,0,1,1515.4860017301862,925.3199999999954) translate(-3 40.44444444444444)"/><path d="M809.34 991.44c0 5.6-22.13 10.16-49.43 10.16-27.28 0-49.4-4.55-49.4-10.16v-81.28c0-5.6 22.12-10.16 49.4-10.16 27.3 0 49.44 4.55 49.44 10.16z" stroke="#5e5e5e" stroke-width="3" fill="#ffeca9"/><path d="M809.34 910.16c0 5.6-22.13 10.16-49.43 10.16-27.28 0-49.4-4.55-49.4-10.16" stroke="#5e5e5e" stroke-width="3" fill="none"/><use xlink:href="#j" transform="matrix(1,0,0,1,715.4860017301863,925.3199999999954) translate(-3 40.44444444444444)"/><path d="M627.5 808.37v-42.32" stroke="#000" stroke-width="2" fill="none"/><path d="M627.5 823.64l-4.65-14.27h9.27zM627.5 750.78l4.62 14.27h-9.27z" stroke="#000" stroke-width="2"/><defs><path d="M30 0v-248h187v28H63v79h144v27H63v87h162V0H30" id="k"/><path d="M117-194c89-4 53 116 60 194h-32v-121c0-31-8-49-39-48C34-167 62-67 57 0H25l-1-190h30c1 10-1 24 2 32 11-22 29-35 61-36" id="l"/><path d="M177-190C167-65 218 103 67 71c-23-6-38-20-44-43l32-5c15 47 100 32 89-28v-30C133-14 115 1 83 1 29 1 15-40 15-95c0-56 16-97 71-98 29-1 48 16 59 35 1-10 0-23 2-32h30zM94-22c36 0 50-32 50-73 0-42-14-75-50-75-39 0-46 34-46 75s6 73 46 73" id="m"/><path d="M24-231v-30h32v30H24zM24 0v-190h32V0H24" id="n"/><path d="M100-194c63 0 86 42 84 106H49c0 40 14 67 53 68 26 1 43-12 49-29l28 8c-11 28-37 45-77 45C44 4 14-33 15-96c1-61 26-98 85-98zm52 81c6-60-76-77-97-28-3 7-6 17-6 28h103" id="o"/><g id="a"><use transform="matrix(0.06172839506172839,0,0,0.06172839506172839,0,0)" xlink:href="#k"/><use transform="matrix(0.06172839506172839,0,0,0.06172839506172839,14.814814814814813,0)" xlink:href="#l"/><use transform="matrix(0.06172839506172839,0,0,0.06172839506172839,27.160493827160494,0)" xlink:href="#m"/><use transform="matrix(0.06172839506172839,0,0,0.06172839506172839,39.50617283950617,0)" xlink:href="#n"/><use transform="matrix(0.06172839506172839,0,0,0.06172839506172839,44.382716049382715,0)" xlink:href="#l"/><use transform="matrix(0.06172839506172839,0,0,0.06172839506172839,56.72839506172839,0)" xlink:href="#o"/></g><path d="M30 0v-248h33v221h125V0H30" id="p"/><path d="M141-36C126-15 110 5 73 4 37 3 15-17 15-53c-1-64 63-63 125-63 3-35-9-54-41-54-24 1-41 7-42 31l-33-3c5-37 33-52 76-52 45 0 72 20 72 64v82c-1 20 7 32 28 27v20c-31 9-61-2-59-35zM48-53c0 20 12 33 32 33 41-3 63-29 60-74-43 2-92-5-92 41" id="q"/><path d="M85-194c31 0 48 13 60 33l-1-100h32l1 261h-30c-2-10 0-23-3-31C134-8 116 4 85 4 32 4 16-35 15-94c0-66 23-100 70-100zm9 24c-40 0-46 34-46 75 0 40 6 74 45 74 42 0 51-32 51-76 0-42-9-74-50-73" id="r"/><g id="b"><use transform="matrix(0.06172839506172839,0,0,0.06172839506172839,0,0)" xlink:href="#p"/><use transform="matrix(0.06172839506172839,0,0,0.06172839506172839,12.345679012345679,0)" xlink:href="#q"/><use transform="matrix(0.06172839506172839,0,0,0.06172839506172839,24.691358024691358,0)" xlink:href="#l"/><use transform="matrix(0.06172839506172839,0,0,0.06172839506172839,37.03703703703704,0)" xlink:href="#r"/><use transform="matrix(0.06172839506172839,0,0,0.06172839506172839,49.382716049382715,0)" xlink:href="#n"/><use transform="matrix(0.06172839506172839,0,0,0.06172839506172839,54.25925925925926,0)" xlink:href="#l"/><use transform="matrix(0.06172839506172839,0,0,0.06172839506172839,66.60493827160494,0)" xlink:href="#m"/></g><path d="M30-248c87 1 191-15 191 75 0 78-77 80-158 76V0H30v-248zm33 125c57 0 124 11 124-50 0-59-68-47-124-48v98" id="s"/><g id="c"><use transform="matrix(0.06172839506172839,0,0,0.06172839506172839,0,0)" xlink:href="#s"/><use transform="matrix(0.06172839506172839,0,0,0.06172839506172839,14.814814814814813,0)" xlink:href="#q"/><use transform="matrix(0.06172839506172839,0,0,0.06172839506172839,27.160493827160494,0)" xlink:href="#m"/><use transform="matrix(0.06172839506172839,0,0,0.06172839506172839,39.50617283950617,0)" xlink:href="#o"/></g><path d="M212-179c-10-28-35-45-73-45-59 0-87 40-87 99 0 60 29 101 89 101 43 0 62-24 78-52l27 14C228-24 195 4 139 4 59 4 22-46 18-125c-6-104 99-153 187-111 19 9 31 26 39 46" id="t"/><path d="M100-194c62-1 85 37 85 99 1 63-27 99-86 99S16-35 15-95c0-66 28-99 85-99zM99-20c44 1 53-31 53-75 0-43-8-75-51-75s-53 32-53 75 10 74 51 75" id="u"/><path d="M210-169c-67 3-38 105-44 169h-31v-121c0-29-5-50-35-48C34-165 62-65 56 0H25l-1-190h30c1 10-1 24 2 32 10-44 99-50 107 0 11-21 27-35 58-36 85-2 47 119 55 194h-31v-121c0-29-5-49-35-48" id="v"/><path d="M84 4C-5 8 30-112 23-190h32v120c0 31 7 50 39 49 72-2 45-101 50-169h31l1 190h-30c-1-10 1-25-2-33-11 22-28 36-60 37" id="w"/><path d="M96-169c-40 0-48 33-48 73s9 75 48 75c24 0 41-14 43-38l32 2c-6 37-31 61-74 61-59 0-76-41-82-99-10-93 101-131 147-64 4 7 5 14 7 22l-32 3c-4-21-16-35-41-35" id="x"/><path d="M59-47c-2 24 18 29 38 22v24C64 9 27 4 27-40v-127H5v-23h24l9-43h21v43h35v23H59v120" id="y"/><g id="d"><use transform="matrix(0.06172839506172839,0,0,0.06172839506172839,0,0)" xlink:href="#t"/><use transform="matrix(0.06172839506172839,0,0,0.06172839506172839,15.987654320987653,0)" xlink:href="#u"/><use transform="matrix(0.06172839506172839,0,0,0.06172839506172839,28.333333333333332,0)" xlink:href="#v"/><use transform="matrix(0.06172839506172839,0,0,0.06172839506172839,46.79012345679012,0)" xlink:href="#v"/><use transform="matrix(0.06172839506172839,0,0,0.06172839506172839,65.24691358024691,0)" xlink:href="#w"/><use transform="matrix(0.06172839506172839,0,0,0.06172839506172839,77.5925925925926,0)" xlink:href="#l"/><use transform="matrix(0.06172839506172839,0,0,0.06172839506172839,89.93827160493828,0)" xlink:href="#n"/><use transform="matrix(0.06172839506172839,0,0,0.06172839506172839,94.81481481481482,0)" xlink:href="#x"/><use transform="matrix(0.06172839506172839,0,0,0.06172839506172839,105.92592592592594,0)" xlink:href="#q"/><use transform="matrix(0.06172839506172839,0,0,0.06172839506172839,118.27160493827162,0)" xlink:href="#y"/><use transform="matrix(0.06172839506172839,0,0,0.06172839506172839,124.44444444444446,0)" xlink:href="#n"/><use transform="matrix(0.06172839506172839,0,0,0.06172839506172839,129.320987654321,0)" xlink:href="#u"/><use transform="matrix(0.06172839506172839,0,0,0.06172839506172839,141.66666666666666,0)" xlink:href="#l"/></g><path d="M106-169C34-169 62-67 57 0H25v-261h32l-1 103c12-21 28-36 61-36 89 0 53 116 60 194h-32v-121c2-32-8-49-39-48" id="z"/><path d="M24 0v-261h32V0H24" id="A"/><g id="e"><use transform="matrix(0.06172839506172839,0,0,0.06172839506172839,0,0)" xlink:href="#t"/><use transform="matrix(0.06172839506172839,0,0,0.06172839506172839,15.987654320987653,0)" xlink:href="#z"/><use transform="matrix(0.06172839506172839,0,0,0.06172839506172839,28.333333333333332,0)" xlink:href="#q"/><use transform="matrix(0.06172839506172839,0,0,0.06172839506172839,40.67901234567901,0)" xlink:href="#l"/><use transform="matrix(0.06172839506172839,0,0,0.06172839506172839,53.02469135802469,0)" xlink:href="#l"/><use transform="matrix(0.06172839506172839,0,0,0.06172839506172839,65.37037037037037,0)" xlink:href="#o"/><use transform="matrix(0.06172839506172839,0,0,0.06172839506172839,77.71604938271605,0)" xlink:href="#A"/></g><path d="M160-131c35 5 61 23 61 61C221 17 115-2 30 0v-248c76 3 177-17 177 60 0 33-19 50-47 57zm-97-11c50-1 110 9 110-42 0-47-63-36-110-37v79zm0 115c55-2 124 14 124-45 0-56-70-42-124-44v89" id="B"/><path d="M114-163C36-179 61-72 57 0H25l-1-190h30c1 12-1 29 2 39 6-27 23-49 58-41v29" id="C"/><g id="f"><use transform="matrix(0.06172839506172839,0,0,0.06172839506172839,0,0)" xlink:href="#B"/><use transform="matrix(0.06172839506172839,0,0,0.06172839506172839,14.814814814814813,0)" xlink:href="#n"/><use transform="matrix(0.06172839506172839,0,0,0.06172839506172839,19.691358024691354,0)" xlink:href="#u"/><use transform="matrix(0.06172839506172839,0,0,0.06172839506172839,32.03703703703703,0)" xlink:href="#v"/><use transform="matrix(0.06172839506172839,0,0,0.06172839506172839,50.49382716049382,0)" xlink:href="#o"/><use transform="matrix(0.06172839506172839,0,0,0.06172839506172839,62.8395061728395,0)" xlink:href="#y"/><use transform="matrix(0.06172839506172839,0,0,0.06172839506172839,69.01234567901234,0)" xlink:href="#C"/><use transform="matrix(0.06172839506172839,0,0,0.06172839506172839,76.35802469135803,0)" xlink:href="#n"/><use transform="matrix(0.06172839506172839,0,0,0.06172839506172839,81.23456790123457,0)" xlink:href="#x"/></g><path d="M185-189c-5-48-123-54-124 2 14 75 158 14 163 119 3 78-121 87-175 55-17-10-28-26-33-46l33-7c5 56 141 63 141-1 0-78-155-14-162-118-5-82 145-84 179-34 5 7 8 16 11 25" id="D"/><path d="M115-194c55 1 70 41 70 98S169 2 115 4C84 4 66-9 55-30l1 105H24l-1-265h31l2 30c10-21 28-34 59-34zm-8 174c40 0 45-34 45-75s-6-73-45-74c-42 0-51 32-51 76 0 43 10 73 51 73" id="E"/><g id="g"><use transform="matrix(0.06172839506172839,0,0,0.06172839506172839,0,0)" xlink:href="#D"/><use transform="matrix(0.06172839506172839,0,0,0.06172839506172839,14.814814814814813,0)" xlink:href="#w"/><use transform="matrix(0.06172839506172839,0,0,0.06172839506172839,27.160493827160494,0)" xlink:href="#E"/><use transform="matrix(0.06172839506172839,0,0,0.06172839506172839,39.50617283950617,0)" xlink:href="#E"/><use transform="matrix(0.06172839506172839,0,0,0.06172839506172839,51.85185185185185,0)" xlink:href="#A"/><use transform="matrix(0.06172839506172839,0,0,0.06172839506172839,56.72839506172839,0)" xlink:href="#n"/><use transform="matrix(0.06172839506172839,0,0,0.06172839506172839,61.60493827160494,0)" xlink:href="#o"/><use transform="matrix(0.06172839506172839,0,0,0.06172839506172839,73.95061728395062,0)" xlink:href="#C"/></g><path fill="#333" d="M232-93c-1 65-40 97-104 97C67 4 28-28 28-90v-158h33c8 89-33 224 67 224 102 0 64-133 71-224h33v155" id="F"/><path fill="#333" d="M135-143c-3-34-86-38-87 0 15 53 115 12 119 90S17 21 10-45l28-5c4 36 97 45 98 0-10-56-113-15-118-90-4-57 82-63 122-42 12 7 21 19 24 35" id="G"/><path fill="#333" d="M100-194c63 0 86 42 84 106H49c0 40 14 67 53 68 26 1 43-12 49-29l28 8c-11 28-37 45-77 45C44 4 14-33 15-96c1-61 26-98 85-98zm52 81c6-60-76-77-97-28-3 7-6 17-6 28h103" id="H"/><path fill="#333" d="M114-163C36-179 61-72 57 0H25l-1-190h30c1 12-1 29 2 39 6-27 23-49 58-41v29" id="I"/><g id="h"><use transform="matrix(0.06172839506172839,0,0,0.06172839506172839,0,0)" xlink:href="#F"/><use transform="matrix(0.06172839506172839,0,0,0.06172839506172839,15.987654320987653,0)" xlink:href="#G"/><use transform="matrix(0.06172839506172839,0,0,0.06172839506172839,27.098765432098766,0)" xlink:href="#H"/><use transform="matrix(0.06172839506172839,0,0,0.06172839506172839,39.44444444444444,0)" xlink:href="#I"/><use transform="matrix(0.06172839506172839,0,0,0.06172839506172839,46.79012345679012,0)" xlink:href="#G"/></g><path fill="#333" d="M30-248c118-7 216 8 213 122C240-48 200 0 122 0H30v-248zM63-27c89 8 146-16 146-99s-60-101-146-95v194" id="J"/><path fill="#333" d="M141-36C126-15 110 5 73 4 37 3 15-17 15-53c-1-64 63-63 125-63 3-35-9-54-41-54-24 1-41 7-42 31l-33-3c5-37 33-52 76-52 45 0 72 20 72 64v82c-1 20 7 32 28 27v20c-31 9-61-2-59-35zM48-53c0 20 12 33 32 33 41-3 63-29 60-74-43 2-92-5-92 41" id="K"/><path fill="#333" d="M59-47c-2 24 18 29 38 22v24C64 9 27 4 27-40v-127H5v-23h24l9-43h21v43h35v23H59v120" id="L"/><path fill="#333" d="M115-194c53 0 69 39 70 98 0 66-23 100-70 100C84 3 66-7 56-30L54 0H23l1-261h32v101c10-23 28-34 59-34zm-8 174c40 0 45-34 45-75 0-40-5-75-45-74-42 0-51 32-51 76 0 43 10 73 51 73" id="M"/><g id="i"><use transform="matrix(0.06172839506172839,0,0,0.06172839506172839,0,0)" xlink:href="#J"/><use transform="matrix(0.06172839506172839,0,0,0.06172839506172839,15.987654320987653,0)" xlink:href="#K"/><use transform="matrix(0.06172839506172839,0,0,0.06172839506172839,28.333333333333332,0)" xlink:href="#L"/><use transform="matrix(0.06172839506172839,0,0,0.06172839506172839,34.50617283950617,0)" xlink:href="#K"/><use transform="matrix(0.06172839506172839,0,0,0.06172839506172839,46.85185185185185,0)" xlink:href="#M"/><use transform="matrix(0.06172839506172839,0,0,0.06172839506172839,59.197530864197525,0)" xlink:href="#K"/><use transform="matrix(0.06172839506172839,0,0,0.06172839506172839,71.5432098765432,0)" xlink:href="#G"/><use transform="matrix(0.06172839506172839,0,0,0.06172839506172839,82.65432098765432,0)" xlink:href="#H"/></g><g id="j"><use transform="matrix(0.06172839506172839,0,0,0.06172839506172839,0,0)" xlink:href="#J"/><use transform="matrix(0.06172839506172839,0,0,0.06172839506172839,15.987654320987653,0)" xlink:href="#K"/><use transform="matrix(0.06172839506172839,0,0,0.06172839506172839,28.333333333333332,0)" xlink:href="#L"/><use transform="matrix(0.06172839506172839,0,0,0.06172839506172839,34.50617283950617,0)" xlink:href="#K"/><use transform="matrix(0.06172839506172839,0,0,0.06172839506172839,46.85185185185185,0)" xlink:href="#M"/><use transform="matrix(0.06172839506172839,0,0,0.06172839506172839,59.197530864197525,0)" xlink:href="#K"/><use transform="matrix(0.06172839506172839,0,0,0.06172839506172839,71.5432098765432,0)" xlink:href="#G"/><use transform="matrix(0.06172839506172839,0,0,0.06172839506172839,82.65432098765432,0)" xlink:href="#H"/></g></defs></g></svg>