<svg xmlns="http://www.w3.org/2000/svg" xmlns:xlink="http://www.w3.org/1999/xlink" xmlns:lucid="lucid" width="1265" height="702"><g transform="translate(-200 -70)" lucid:page-tab-id="0_0"><path d="M0 0h1851.93v849.7H0z" fill="#fff"/><path d="M985.42 158.56c0-3.32 2.7-6 6-6h260.76c3.3 0 6 2.68 6 6v568c0 3.3-2.7 6-6 6H991.42c-3.3 0-6-2.7-6-6z" fill-opacity="0"/><path d="M1002.16 152.56h9.2m6.14 0h9.2m6.14 0h9.2m6.13 0h9.2m6.14 0h9.22m6.13 0h9.2m6.14 0h9.2m6.13 0h9.2m6.14 0h9.2m6.14 0h9.2m6.14 0h9.2m6.14 0h9.2m6.14 0h9.2m6.14 0h9.2m6.14 0h9.2m6.14 0h9.2m6.13 0h4.6l3.03.82 2.16 2.15.82 3.03v4.48m0 5.98V178m0 5.97v8.97m0 5.97v8.98m0 5.98v8.97m0 5.98v8.98m0 5.98v8.97m0 5.97v8.97m0 5.98v8.97m0 5.98v8.97m0 5.98v8.96m0 6v8.96m0 5.98v8.97m0 6v8.96m0 5.98v8.96m0 5.98v8.97m0 5.98v8.97m0 5.98v8.97m0 5.98v8.96m0 5.97v8.97m0 5.98V462m0 5.97v8.97m0 5.97v8.98m0 5.98v8.97m0 5.98v8.98m0 5.98v8.97m0 5.97v8.97m0 5.98v8.97m0 5.98v8.97m0 5.98v8.96m0 6v8.96m0 5.98v8.97m0 6v8.96m0 5.98v8.96m0 5.98v8.97m0 5.98v8.97m0 5.98v8.97m0 5.98v8.96m0 5.97v4.5l-.82 3.02-2.16 2.14-3.02.82h-4.6m-6.14 0h-9.2m-6.14 0h-9.2m-6.14 0h-9.2m-6.14 0h-9.2m-6.13 0h-9.22m-6.13 0h-9.2m-6.14 0h-9.2m-6.13 0h-9.2m-6.14 0h-9.2m-6.14 0h-9.2m-6.15 0h-9.2m-6.13 0h-9.2m-6.14 0h-9.2m-6.14 0h-9.2m-6.14 0h-9.2m-6.14 0h-9.2m-6.14 0h-4.6l-3.03-.82-2.16-2.15-.82-3.04v-4.5m0-5.97v-8.97m0-5.98v-8.97m0-5.98v-8.97m0-5.98v-8.97m0-5.98v-8.96m0-5.98v-8.97m0-6v-8.96m0-5.98v-8.97m0-6v-8.95m0-5.98v-8.97m0-5.98v-8.97m0-5.98v-8.97m0-5.97v-8.97m0-5.98v-8.97m0-5.97v-8.97m0-5.98v-8.97m0-5.96v-8.97m0-5.98V453m0-5.98v-8.97m0-5.98v-8.97m0-5.98v-8.97m0-5.98v-8.97m0-5.98v-8.97m0-5.98v-8.96m0-5.98v-8.97m0-6v-8.96m0-5.98v-8.97m0-6v-8.95m0-5.98v-8.97m0-5.98v-8.97m0-5.98v-8.97m0-5.97v-8.97m0-5.98v-8.97m0-5.97v-8.97m0-5.98v-8.97m0-5.96v-8.97m0-5.98V169m0-5.98v-4.48l.82-3.03 2.15-2.15 3.02-.82h4.6" stroke="#ccc" stroke-width="3" fill="none"/><path d="M512.33 158.56c0-3.32 2.7-6 6-6h439.32c3.32 0 6 2.68 6 6v568c0 3.3-2.68 6-6 6H518.33c-3.3 0-6-2.7-6-6z" stroke="#0c7cba" stroke-width="3" fill="#b2d6ef" fill-opacity=".15"/><path d="M795.96 573.83H783c-.63 0-1.24-.38-1.5-.98l-18.14-38.9h-7.32c-.9 0-1.7-.75-1.7-1.68v-11.22c0-.92.8-1.68 1.7-1.68h16.15c.68 0 1.24.38 1.5.98l18.1 38.9h4.16c.9 0 1.7.75 1.7 1.73v11.17c0 .92-.8 1.68-1.7 1.68zm-11.9-3.43h10.17v-7.73h-3.5c-.66 0-1.26-.38-1.52-.98l-18.05-38.96h-13.38v7.8h6.67c.7 0 1.3.37 1.56.97z" stroke="#fff" stroke-opacity="0" fill="#ef8d22"/><path d="M760.83 573.83H747c-.92 0-1.68-.77-1.68-1.7 0-.28.04-.48.17-.72l14.44-30.26c.3-.6.86-.97 1.53-.97s1.24.33 1.54.94l6.92 14.32c.22.47.22.97 0 1.44l-7.56 16c-.3.6-.86.97-1.53.97zm-11.1-3.4h10l6.82-14.27-5.1-10.37z" stroke="#fff" stroke-opacity="0" fill="#ef8d22"/><path d="M772.02 589.8c-22.08 0-40-17.92-40-40s17.92-40 40-40 40 17.92 40 40-17.92 40-40 40zm0-76.56c-20.24 0-36.56 16.32-36.56 36.56 0 20.24 16.32 36.56 36.56 36.56 20.24 0 36.56-16.32 36.56-36.56 0-20.24-16.32-36.56-36.56-36.56z" stroke="#fff" stroke-opacity="0" fill="#ef8d22"/><path d="M582.33 414.12c-22.08 0-40 17.92-40 40s17.92 40 40 40 40-17.92 40-40-17.92-40-40-40zm0 76.8c-20.32 0-36.8-16.48-36.8-36.8 0-20.32 16.48-36.8 36.8-36.8 20.32 0 36.8 16.48 36.8 36.8 0 20.32-16.48 36.8-36.8 36.8z" stroke="#fff" stroke-opacity="0" stroke-width="3" fill="#0c7cba"/><path d="M567.94 463.72h-16.02c-.88 0-1.6-.7-1.6-1.6v-16c0-.9.72-1.6 1.6-1.6h16.02c.88 0 1.6.7 1.6 1.6v16c0 .9-.72 1.6-1.6 1.6zm-14.4-3.2h12.78v-12.8h-12.78zM604.73 442.92h-9.6c-.88 0-1.6-.7-1.6-1.6v-9.6c0-.88.72-1.6 1.6-1.6h9.6c.88 0 1.6.72 1.6 1.6v9.6c0 .9-.72 1.6-1.6 1.6zm-8-3.2h6.4v-6.4h-6.4zM604.73 460.52h-9.6c-.88 0-1.6-.7-1.6-1.6v-9.6c0-.88.72-1.6 1.6-1.6h9.6c.88 0 1.6.72 1.6 1.6v9.6c0 .9-.72 1.6-1.6 1.6zm-8-3.2h6.4v-6.4h-6.4zM604.73 478.12h-9.6c-.88 0-1.6-.7-1.6-1.6v-9.6c0-.88.72-1.6 1.6-1.6h9.6c.88 0 1.6.72 1.6 1.6v9.6c0 .9-.72 1.6-1.6 1.6zm-8-3.2h6.4v-6.4h-6.4zM591.46 455.26l-5.38 5.38-2.27-2.26 2.66-2.65h-13.73v-3.2h13.73l-2.65-2.67 2.28-2.25 5.38 5.4c.63.62.63 1.62.02 2.26h-.02zM590.58 437.34l-1.98 7.35-3.06-.85 1-3.8-14.18 7.48-1.5-2.8 13.87-7.33-3.45-.88.83-3.2 7.37 2c.85.2 1.37 1.1 1.13 1.94 0 .03 0 .06-.02.08zM589.47 472.88l-7.35 2.04-.85-3.2 3.45-.94-13.86-7.32 1.48-2.8 14.2 7.48-1-3.75 3.08-.84 1.98 7.35c.24.86-.28 1.74-1.13 1.97z" stroke="#fff" stroke-opacity="0" stroke-width="3" fill="#0c7cba"/><path d="M1112.84 454.85h-8v-3.38h6.24v-57h-73.12v57h50.96v3.38h-52.72c-.88 0-1.68-.76-1.68-1.72V392.8c0-.96.8-1.72 1.68-1.72h76.64c.88 0 1.68.76 1.68 1.72v60.33c0 .96-.8 1.72-1.68 1.72z" stroke="#fff" stroke-opacity="0" fill="#5e5e5e"/><path d="M1112.76 394.47h-76.56c-.88 0-1.68-.76-1.68-1.7v-9.53c0-.93.8-1.7 1.68-1.7h76.64c.88 0 1.68.77 1.68 1.7v9.54c0 .93-.72 1.7-1.68 1.7h-.08zm-74.8-3.4h73.12v-6.13h-73.12zM1074.52 431.02c-8.87 0-16.06-7.17-16.06-16 0-8.84 7.2-16 16.06-16 8.87 0 16.07 7.16 16.07 16 0 8.83-7.2 16-16.08 16zm0-28.62h-.03c-6.98.04-12.64 5.67-12.64 12.65 0 6.97 5.7 12.6 12.7 12.6 6.97-.03 12.62-5.66 12.62-12.64 0-6.93-5.68-12.6-12.66-12.6zM1082.5 448.5c-.4 0-.76-.1-1.1-.4l-6.87-5.6-6.82 5.6c-.7.62-1.8.53-2.4-.2-.24-.3-.38-.67-.38-1.08v-14.3h3.4v10.7l5.22-4.2c.62-.52 1.5-.52 2.13 0l5.2 4.2v-10.7h3.42v14.3c0 .67-.37 1.23-.98 1.52-.27.13-.52.17-.8.17z" stroke="#fff" stroke-opacity="0" fill="#5e5e5e"/><path d="M1071.87 423.08c-.5 0-.92-.18-1.25-.54l-5.3-5.56 2.4-2.34 4.08 4.27 9.54-9.82 2.4 2.34-10.65 11.12c-.34.36-.75.54-1.23.54z" stroke="#fff" stroke-opacity="0" fill="#5e5e5e"/><path d="M1036.1 383.36h76.48v69.7h-76.48v-69.7z" stroke="#fff" stroke-opacity="0" stroke-width=".42" fill="#fff" fill-opacity="0"/><path d="M440.14 454.12h83.7M440.17 454.12h-1.02" stroke="#000" stroke-width="2" fill="none"/><path d="M539.1 454.12l-14.27 4.64v-9.27z" stroke="#000" stroke-width="2"/><path d="M623.33 454.12h47.84c3.32 0 6-2.68 6-6v-83.4c0-3.3 2.7-6 6-6h30.34" stroke="#000" stroke-width="2" fill="none"/><path d="M623.36 455.12h-1.07l.03-1-.06-1h1.1z"/><path d="M728.78 358.73l-14.27 4.64v-9.27z" stroke="#000" stroke-width="2"/><path d="M813.02 358.73h104.25c3.3 0 6-2.68 6-6V306c0-3.3 2.7-6 6-6h86.75" stroke="#000" stroke-width="2" fill="none"/><path d="M813.04 359.73h-1.1l.08-1-.04-1h1.06z"/><path d="M1031.3 300l-14.28 4.64v-9.28z" stroke="#000" stroke-width="2"/><path d="M813.02 454.27h104.25c3.3 0 6-2.7 6-6v-23.84c0-3.32 2.7-6 6-6h86.75" stroke="#000" stroke-width="2" fill="none"/><path d="M813.04 455.27h-1.1l.08-1-.04-1h1.06z"/><path d="M1031.3 418.43l-14.28 4.63v-9.27z" stroke="#000" stroke-width="2"/><path d="M813 549.57h203.7" stroke="#000" stroke-width="2" fill="none"/><path d="M813.03 550.57h-1.06l.05-.77-.05-1.23h1.06z"/><path d="M1031.98 549.57l-14.27 4.64v-9.26z" stroke="#000" stroke-width="2"/><path d="M548.05 76.78c0-3.32 2.7-6 6-6h379.32c3.32 0 6 2.68 6 6v69.78c0 3.3-2.68 6-6 6H554.05c-3.3 0-6-2.7-6-6z" stroke="#000" stroke-opacity="0" stroke-width="3" fill="#fff" fill-opacity="0"/><use xlink:href="#a" transform="matrix(1,0,0,1,553.0494123472695,75.7766463172809) translate(191 23.926680232923783)"/><use xlink:href="#b" transform="matrix(1,0,0,1,553.0494123472695,75.7766463172809) translate(141.27736764095528 59.81670058230945)"/><path d="M980 106c0-3.3 2.7-6 6-6h260.75c3.32 0 6 2.7 6 6v60.56c0 3.3-2.68 6-6 6H986c-3.3 0-6-2.7-6-6z" stroke="#000" stroke-opacity="0" stroke-width="3" fill="#fff" fill-opacity="0"/><use xlink:href="#c" transform="matrix(1,0,0,1,985,105) translate(20.57407407407416 37.46527777777777)"/><use xlink:href="#d" transform="matrix(1,0,0,1,985,105) translate(141.37654320987656 37.46527777777777)"/><path d="M512.33 326c0-3.3 2.7-6 6-6h128c3.3 0 6 2.7 6 6v62.66c0 3.3-2.7 6-6 6h-128c-3.3 0-6-2.7-6-6z" stroke="#000" stroke-opacity="0" stroke-width="3" fill="#fff" fill-opacity="0"/><use xlink:href="#e" transform="matrix(1,0,0,1,517.3299389518429,325) translate(46.51234567901234 23.87152777777778)"/><use xlink:href="#f" transform="matrix(1,0,0,1,517.3299389518429,325) translate(19.351851851851848 50.53819444444445)"/><path d="M645.57 185.82c0-3.32 2.7-6 6-6H945.4c3.3 0 6 2.68 6 6v34.65c0 3.3-2.7 6-6 6H651.56c-3.3 0-6-2.7-6-6z" stroke="#000" stroke-opacity="0" stroke-width="3" fill="#fff" fill-opacity="0"/><use xlink:href="#g" transform="matrix(1,0,0,1,650.5716615583852,184.81682789264732) translate(12.043209876543187 22.40277777777778)"/><use xlink:href="#h" transform="matrix(1,0,0,1,650.5716615583852,184.81682789264732) translate(132.84567901234567 22.40277777777778)"/><use xlink:href="#i" transform="matrix(1,0,0,1,650.5716615583852,184.81682789264732) translate(189.08024691358025 22.40277777777778)"/><path d="M1112.84 316.55h-8v-3.38h6.24v-57h-73.12v57h50.96v3.38h-52.72c-.88 0-1.68-.76-1.68-1.72V254.5c0-.95.8-1.72 1.68-1.72h76.64c.88 0 1.68.77 1.68 1.72v60.33c0 .96-.8 1.72-1.68 1.72z" stroke="#fff" stroke-opacity="0" fill="#5e5e5e"/><path d="M1112.76 256.17h-76.56c-.88 0-1.68-.76-1.68-1.7v-9.52c0-.93.8-1.7 1.68-1.7h76.64c.88 0 1.68.77 1.68 1.7v9.53c0 .93-.72 1.7-1.68 1.7h-.08zm-74.8-3.4h73.12v-6.13h-73.12zM1074.52 292.72c-8.87 0-16.06-7.17-16.06-16 0-8.84 7.2-16 16.06-16 8.87 0 16.07 7.16 16.07 16 0 8.83-7.2 16-16.08 16zm0-28.6h-.03c-6.98.02-12.64 5.65-12.64 12.63s5.7 12.6 12.7 12.6c6.97-.02 12.62-5.66 12.62-12.63 0-6.95-5.68-12.6-12.66-12.6zM1082.5 310.22c-.4 0-.76-.13-1.1-.4l-6.87-5.62-6.82 5.62c-.7.6-1.8.5-2.4-.2-.24-.33-.38-.68-.38-1.1v-14.3h3.4v10.7l5.22-4.2c.62-.52 1.5-.52 2.13 0l5.2 4.2v-10.7h3.42v14.3c0 .67-.37 1.23-.98 1.52-.27.13-.52.18-.8.18z" stroke="#fff" stroke-opacity="0" fill="#5e5e5e"/><path d="M1071.87 284.8c-.5 0-.92-.2-1.25-.56l-5.3-5.56 2.4-2.34 4.08 4.27 9.54-9.82 2.4 2.34-10.65 11.12c-.34.36-.75.55-1.23.55z" stroke="#fff" stroke-opacity="0" fill="#5e5e5e"/><path d="M1036.1 245.06h76.48v69.7h-76.48v-69.7z" stroke="#fff" stroke-opacity="0" stroke-width=".42" fill="#fff" fill-opacity="0"/><path d="M1113.54 610.33h-8v-3.38h6.24v-57h-73.12v57h50.96v3.38h-52.72c-.88 0-1.68-.76-1.68-1.72V548.3c0-.95.8-1.72 1.68-1.72h76.64c.88 0 1.68.77 1.68 1.72v60.33c0 .97-.8 1.73-1.68 1.73z" stroke="#fff" stroke-opacity="0" fill="#5e5e5e"/><path d="M1113.46 549.95h-76.56c-.88 0-1.68-.76-1.68-1.7v-9.52c0-.93.8-1.7 1.68-1.7h76.64c.88 0 1.68.77 1.68 1.7v9.53c0 .93-.72 1.7-1.68 1.7h-.08zm-74.8-3.4h73.12v-6.13h-73.12zM1075.22 586.5c-8.87 0-16.07-7.17-16.07-16 0-8.84 7.2-16 16.07-16 8.86 0 16.06 7.16 16.06 16 0 8.83-7.2 16-16.06 16zm0-28.6h-.04c-6.97.02-12.63 5.65-12.63 12.63s5.7 12.6 12.7 12.6c6.97-.02 12.63-5.66 12.63-12.63 0-6.95-5.7-12.6-12.66-12.6zM1083.2 604c-.42 0-.77-.13-1.1-.4l-6.88-5.62-6.82 5.62c-.7.6-1.8.5-2.4-.2-.25-.33-.38-.68-.38-1.1V588h3.4v10.7l5.2-4.2c.63-.52 1.53-.52 2.15 0l5.2 4.2V588h3.42v14.3c0 .67-.38 1.23-.98 1.52-.27.13-.53.18-.82.18z" stroke="#fff" stroke-opacity="0" fill="#5e5e5e"/><path d="M1072.56 578.57c-.5 0-.92-.2-1.25-.55l-5.3-5.56 2.4-2.34 4.1 4.27 9.53-9.84 2.4 2.34-10.65 11.12c-.33.36-.74.55-1.22.55z" stroke="#fff" stroke-opacity="0" fill="#5e5e5e"/><path d="M1036.8 538.84h76.47v69.7h-76.47v-69.7z" stroke="#fff" stroke-opacity="0" stroke-width=".42" fill="#fff" fill-opacity="0"/><path d="M795.96 478.3H783c-.63 0-1.24-.38-1.5-.98l-18.14-38.9h-7.32c-.9 0-1.7-.75-1.7-1.68v-11.22c0-.92.8-1.7 1.7-1.7h16.15c.68 0 1.24.4 1.5 1l18.1 38.88h4.16c.9 0 1.7.77 1.7 1.75v11.16c0 .94-.8 1.7-1.7 1.7zm-11.9-3.43h10.17v-7.73h-3.5c-.66 0-1.26-.4-1.52-1l-18.05-38.93h-13.38v7.8h6.67c.7 0 1.3.38 1.56.98z" stroke="#fff" stroke-opacity="0" fill="#ef8d22"/><path d="M760.83 478.3H747c-.92 0-1.68-.77-1.68-1.72 0-.27.04-.47.17-.7l14.44-30.27c.3-.6.86-.97 1.53-.97s1.24.34 1.54.95l6.92 14.3c.22.48.22.98 0 1.45l-7.56 16c-.3.6-.86.97-1.53.97zm-11.1-3.4h10l6.82-14.27-5.1-10.37z" stroke="#fff" stroke-opacity="0" fill="#ef8d22"/><path d="M772.02 494.27c-22.08 0-40-17.92-40-40s17.92-40 40-40 40 17.92 40 40-17.92 40-40 40zm0-76.56c-20.24 0-36.56 16.33-36.56 36.57 0 20.24 16.32 36.56 36.56 36.56 20.24 0 36.56-16.32 36.56-36.56 0-20.24-16.32-36.56-36.56-36.56zM795.96 382.77H783c-.63 0-1.24-.38-1.5-.98l-18.14-38.9h-7.32c-.9 0-1.7-.76-1.7-1.7V330c0-.94.8-1.7 1.7-1.7h16.15c.68 0 1.24.38 1.5.98l18.1 38.9h4.16c.9 0 1.7.75 1.7 1.73v11.18c0 .93-.8 1.7-1.7 1.7zm-11.9-3.43h10.17v-7.74h-3.5c-.66 0-1.26-.38-1.52-.98l-18.05-38.94h-13.38v7.8h6.67c.7 0 1.3.37 1.56.97z" stroke="#fff" stroke-opacity="0" fill="#ef8d22"/><path d="M760.83 382.77H747c-.92 0-1.68-.78-1.68-1.72 0-.27.04-.47.17-.7l14.44-30.27c.3-.6.86-.98 1.53-.98s1.24.34 1.54.94l6.92 14.3c.22.48.22 1 0 1.46l-7.56 16c-.3.6-.86.97-1.53.97zm-11.1-3.4h10l6.82-14.28-5.1-10.38z" stroke="#fff" stroke-opacity="0" fill="#ef8d22"/><path d="M772.02 398.73c-22.08 0-40-17.92-40-40s17.92-40 40-40 40 17.92 40 40-17.92 40-40 40zm0-76.56c-20.24 0-36.56 16.32-36.56 36.56 0 20.24 16.32 36.56 36.56 36.56 20.24 0 36.56-16.33 36.56-36.57 0-20.24-16.32-36.56-36.56-36.56z" stroke="#fff" stroke-opacity="0" fill="#ef8d22"/><path d="M800 367.75c0-3.3 2.7-6 6-6h127.37c3.32 0 6 2.7 6 6v32.9c0 3.3-2.68 6-6 6H806c-3.3 0-6-2.7-6-6z" stroke="#000" stroke-opacity="0" stroke-width="3" fill="#fff" fill-opacity="0"/><use xlink:href="#j" transform="matrix(1,0,0,1,805,366.75235585424923) translate(14.588017915605022 11.628875322631762)"/><use xlink:href="#k" transform="matrix(1,0,0,1,805,366.75235585424923) translate(50.88787525951458 11.628875322631762)"/><use xlink:href="#l" transform="matrix(1,0,0,1,805,366.75235585424923) translate(103.2985702899869 11.628875322631762)"/><use xlink:href="#m" transform="matrix(1,0,0,1,805,366.75235585424923) translate(33.56569639351102 29.072188306579406)"/><use xlink:href="#n" transform="matrix(1,0,0,1,805,366.75235585424923) translate(88.35869574355027 29.072188306579406)"/><path d="M1115.52 391.76h22.02c3.87 0 7 3.13 7 7v18.3" stroke="#5e5e5e" stroke-width="2" fill="none"/><path d="M1115.55 392.76h-1.03v-2h1.03z" fill="#5e5e5e"/><path d="M1144.54 432.34l-4.63-14.27h9.28z" stroke="#5e5e5e" stroke-width="2" fill="#5e5e5e"/><path d="M1115.52 252.73h22.02c3.87 0 7 3.13 7 7v22.72" stroke="#5e5e5e" stroke-width="2" fill="none"/><path d="M1115.55 253.73h-1.03v-2h1.03z" fill="#5e5e5e"/><path d="M1144.54 297.72l-4.63-14.27h9.28z" stroke="#5e5e5e" stroke-width="2" fill="#5e5e5e"/><path d="M1144.54 627.1c-7.37 0-15.17-2.04-15.17-5.8v-28.4c0-3.76 7.8-5.8 15.17-5.8 7.35 0 15.18 2.04 15.18 5.8v28.4c0 3.76-7.83 5.8-15.18 5.8zm0-38.28c-8.34 0-13.47 2.36-13.47 4.08v28.4c0 1.68 5.1 4.08 13.47 4.08 8.38 0 13.48-2.36 13.48-4.08v-28.4c0-1.72-5.13-4.08-13.48-4.08z" stroke="#fff" stroke-opacity="0" fill="#5e5e5e"/><path d="M1144.54 597.87c-7.37 0-15.17-2.04-15.17-5.82h1.7c0 1.7 5.1 4.1 13.47 4.1 8.38 0 13.48-2.37 13.48-4.1h1.7c0 3.78-7.83 5.82-15.18 5.82z" stroke="#fff" stroke-opacity="0" fill="#5e5e5e"/><path d="M1159.72 590.08c0-3.3 2.68-6 6-6h46.2c3.3 0 6 2.7 6 6v11.86c0 3.3-2.7 6-6 6h-46.2c-3.32 0-6-2.7-6-6z" stroke="#000" stroke-opacity="0" stroke-width="3" fill="#fff" fill-opacity="0"/><use xlink:href="#o" transform="matrix(1,0,0,1,1164.7166766572009,589.0843509505073) translate(0 14.703326550204768)"/><use xlink:href="#p" transform="matrix(1,0,0,1,1164.7166766572009,589.0843509505073) translate(0 36.758316375511924)"/><path d="M1116.22 548.6h21.32c3.87 0 7 3.14 7 7v13" stroke="#5e5e5e" stroke-width="2" fill="none"/><path d="M1116.24 549.6h-1.02V547.62h1.02z" fill="#5e5e5e"/><path d="M1144.54 583.87l-4.63-14.27h9.28z" stroke="#5e5e5e" stroke-width="2" fill="#5e5e5e"/><path d="M1144.54 475.57c-7.37 0-15.17-2.04-15.17-5.8v-28.4c0-3.76 7.8-5.8 15.17-5.8 7.35 0 15.18 2.04 15.18 5.8v28.4c0 3.76-7.83 5.8-15.18 5.8zm0-38.28c-8.34 0-13.47 2.35-13.47 4.07v28.4c0 1.68 5.1 4.08 13.47 4.08 8.38 0 13.48-2.36 13.48-4.08v-28.4c0-1.72-5.13-4.08-13.48-4.08z" stroke="#fff" stroke-opacity="0" fill="#5e5e5e"/><path d="M1144.54 446.34c-7.37 0-15.17-2.03-15.17-5.8h1.7c0 1.7 5.1 4.1 13.47 4.1 8.38 0 13.48-2.4 13.48-4.1h1.7c0 3.77-7.83 5.8-15.18 5.8z" stroke="#fff" stroke-opacity="0" fill="#5e5e5e"/><path d="M1159.72 439.77c0-3.32 2.68-6 6-6h46.2c3.3 0 6 2.68 6 6v11.85c0 3.32-2.7 6-6 6h-46.2c-3.32 0-6-2.68-6-6z" stroke="#000" stroke-opacity="0" stroke-width="3" fill="#fff" fill-opacity="0"/><use xlink:href="#o" transform="matrix(1,0,0,1,1164.7166766572743,438.7679523936032) translate(0 14.703326550204768)"/><use xlink:href="#p" transform="matrix(1,0,0,1,1164.7166766572743,438.7679523936032) translate(0 36.758316375511924)"/><path d="M1144.54 340.95c-7.37 0-15.17-2.04-15.17-5.8v-28.4c0-3.76 7.8-5.8 15.17-5.8 7.35 0 15.18 2.04 15.18 5.8v28.4c0 3.76-7.83 5.8-15.18 5.8zm0-38.28c-8.34 0-13.47 2.36-13.47 4.08v28.4c0 1.68 5.1 4.08 13.47 4.08 8.38 0 13.48-2.36 13.48-4.08v-28.4c0-1.72-5.13-4.08-13.48-4.08z" stroke="#fff" stroke-opacity="0" fill="#5e5e5e"/><path d="M1144.54 311.72c-7.37 0-15.17-2.03-15.17-5.8h1.7c0 1.7 5.1 4.1 13.47 4.1 8.38 0 13.48-2.4 13.48-4.1h1.7c0 3.77-7.83 5.8-15.18 5.8z" stroke="#fff" stroke-opacity="0" fill="#5e5e5e"/><path d="M1159.72 303.94c0-3.32 2.68-6 6-6h46.2c3.3 0 6 2.68 6 6v11.85c0 3.3-2.7 6-6 6h-46.2c-3.32 0-6-2.7-6-6z" stroke="#000" stroke-opacity="0" stroke-width="3" fill="#fff" fill-opacity="0"/><use xlink:href="#o" transform="matrix(1,0,0,1,1164.716676657203,302.9375998973527) translate(0 14.703326550204768)"/><use xlink:href="#p" transform="matrix(1,0,0,1,1164.716676657203,302.9375998973527) translate(0 36.758316375511924)"/><path d="M1000 208.4c0-3.3 2.7-6 6-6h127.37c3.32 0 6 2.7 6 6v32.9c0 3.3-2.68 6-6 6H1006c-3.3 0-6-2.7-6-6z" stroke="#000" stroke-opacity="0" stroke-width="3" fill="#fff" fill-opacity="0"/><use xlink:href="#q" transform="matrix(1,0,0,1,1005,207.40526838551318) translate(20.660280872038747 21.265826550204768)"/><use xlink:href="#r" transform="matrix(1,0,0,1,1005,207.40526838551318) translate(99.12907569031904 21.265826550204768)"/><path d="M1000 348.6c0-3.32 2.7-6 6-6h127.37c3.32 0 6 2.68 6 6v32.88c0 3.3-2.68 6-6 6H1006c-3.3 0-6-2.7-6-6z" stroke="#000" stroke-opacity="0" stroke-width="3" fill="#fff" fill-opacity="0"/><use xlink:href="#q" transform="matrix(1,0,0,1,1005.000000000002,347.59086790448055) translate(20.660280872038747 21.265826550204768)"/><use xlink:href="#s" transform="matrix(1,0,0,1,1005.000000000002,347.59086790448055) translate(99.12907569031904 21.265826550204768)"/><path d="M1000 506c0-3.3 2.7-6 6-6h127.37c3.32 0 6 2.7 6 6v32.9c0 3.3-2.68 6-6 6H1006c-3.3 0-6-2.7-6-6z" stroke="#000" stroke-opacity="0" stroke-width="3" fill="#fff" fill-opacity="0"/><use xlink:href="#q" transform="matrix(1,0,0,1,1005,505) translate(20.660280872038747 21.265826550204768)"/><use xlink:href="#t" transform="matrix(1,0,0,1,1005,505) translate(99.12907569031904 21.265826550204768)"/><path d="M795.96 669.37H783c-.63 0-1.24-.4-1.5-.98l-18.14-38.9h-7.32c-.9 0-1.7-.77-1.7-1.7v-11.2c0-.94.8-1.7 1.7-1.7h16.15c.68 0 1.24.38 1.5.98l18.1 38.9h4.16c.9 0 1.7.75 1.7 1.73v11.18c0 .92-.8 1.7-1.7 1.7zm-11.9-3.44h10.17v-7.73h-3.5c-.66 0-1.26-.38-1.52-.98l-18.05-38.95h-13.38v7.8h6.67c.7 0 1.3.38 1.56.97z" stroke="#fff" stroke-opacity="0" fill="#ef8d22"/><path d="M760.83 669.37H747c-.92 0-1.68-.78-1.68-1.72 0-.27.04-.47.17-.7l14.44-30.28c.3-.6.86-.97 1.53-.97s1.24.33 1.54.94l6.92 14.3c.22.48.22 1 0 1.46l-7.56 16c-.3.6-.86.97-1.53.97zm-11.1-3.4h10l6.82-14.28-5.1-10.38z" stroke="#fff" stroke-opacity="0" fill="#ef8d22"/><path d="M772.02 685.33c-22.08 0-40-17.92-40-40s17.92-40 40-40 40 17.92 40 40-17.92 40-40 40zm0-76.56c-20.24 0-36.56 16.32-36.56 36.56 0 20.24 16.32 36.56 36.56 36.56 20.24 0 36.56-16.33 36.56-36.57 0-20.24-16.32-36.56-36.56-36.56zM795.96 287.24H783c-.63 0-1.24-.38-1.5-.98l-18.14-38.9h-7.32c-.9 0-1.7-.76-1.7-1.68v-11.22c0-.93.8-1.7 1.7-1.7h16.15c.68 0 1.24.4 1.5 1l18.1 38.88h4.16c.9 0 1.7.76 1.7 1.74v11.17c0 .92-.8 1.7-1.7 1.7zm-11.9-3.43h10.17v-7.73h-3.5c-.66 0-1.26-.38-1.52-.98l-18.05-38.95h-13.38v7.78h6.67c.7 0 1.3.4 1.56.98z" stroke="#fff" stroke-opacity="0" fill="#ef8d22"/><path d="M760.83 287.24H747c-.92 0-1.68-.78-1.68-1.72 0-.27.04-.47.17-.7l14.44-30.28c.3-.6.86-.97 1.53-.97s1.24.34 1.54.94l6.92 14.32c.22.47.22.98 0 1.45l-7.56 16c-.3.6-.86.97-1.53.97zm-11.1-3.4h10l6.82-14.28-5.1-10.37z" stroke="#fff" stroke-opacity="0" fill="#ef8d22"/><path d="M772.02 303.2c-22.08 0-40-17.92-40-40s17.92-40 40-40 40 17.92 40 40-17.92 40-40 40zm0-76.56c-20.24 0-36.56 16.32-36.56 36.56 0 20.24 16.32 36.56 36.56 36.56 20.24 0 36.56-16.32 36.56-36.56 0-20.24-16.32-36.56-36.56-36.56z" stroke="#fff" stroke-opacity="0" fill="#ef8d22"/><path d="M623.32 454.27h90.2" stroke="#000" stroke-width="2" fill="none"/><path d="M623.35 455.27h-1.06l.03-1.15-.05-.85h1.07z"/><path d="M728.78 454.27l-14.27 4.63v-9.27z" stroke="#000" stroke-width="2"/><path d="M623.33 454.12h47.84c3.32 0 6-2.68 6-6V269.2c0-3.3 2.7-6 6-6h30.34" stroke="#000" stroke-width="2" fill="none"/><path d="M623.36 455.12h-1.07l.03-1-.06-1h1.1z"/><path d="M728.78 263.2l-14.27 4.64v-9.27z" stroke="#000" stroke-width="2"/><path d="M813.02 263.2h203" stroke="#000" stroke-width="2" fill="none"/><path d="M813.04 264.2h-1.1l.08-1-.04-1h1.06z"/><path d="M1031.3 263.2l-14.28 4.64v-9.27z" stroke="#000" stroke-width="2"/><path d="M813.02 645.33h104.6c3.3 0 6-2.68 6-6v-38.15c0-3.32 2.68-6 6-6h87.1" stroke="#000" stroke-width="2" fill="none"/><path d="M813.04 646.33h-1.1l.08-1-.04-1h1.06z"/><path d="M1031.98 595.18l-14.27 4.63v-9.26z" stroke="#000" stroke-width="2"/><path d="M800 277.67c0-3.32 2.7-6 6-6h127.37c3.32 0 6 2.68 6 6v32.88c0 3.32-2.68 6-6 6H806c-3.3 0-6-2.68-6-6z" stroke="#000" stroke-opacity="0" stroke-width="3" fill="#fff" fill-opacity="0"/><use xlink:href="#u" transform="matrix(1,0,0,1,805,276.66818704421166) translate(12.972896343017275 11.628875322631762)"/><use xlink:href="#k" transform="matrix(1,0,0,1,805,276.66818704421166) translate(52.502996832102326 11.628875322631762)"/><use xlink:href="#l" transform="matrix(1,0,0,1,805,276.66818704421166) translate(104.91369186257464 11.628875322631762)"/><use xlink:href="#m" transform="matrix(1,0,0,1,805,276.66818704421166) translate(33.56569639351102 29.072188306579406)"/><use xlink:href="#n" transform="matrix(1,0,0,1,805,276.66818704421166) translate(88.35869574355027 29.072188306579406)"/><path d="M812.02 463.62c0-3.3 2.68-6 6-6H945.4c3.3 0 6 2.7 6 6v32.9c0 3.3-2.7 6-6 6H818c-3.32 0-6-2.7-6-6z" stroke="#000" stroke-opacity="0" stroke-width="3" fill="#fff" fill-opacity="0"/><g><use xlink:href="#v" transform="matrix(1,0,0,1,817.016745525006,462.6238545934848) translate(4.170483772414066 11.628875322631762)"/><use xlink:href="#w" transform="matrix(1,0,0,1,817.016745525006,462.6238545934848) translate(77.45662512858297 11.628875322631762)"/><use xlink:href="#x" transform="matrix(1,0,0,1,817.016745525006,462.6238545934848) translate(25.490088530572294 29.072188306579406)"/><use xlink:href="#m" transform="matrix(1,0,0,1,817.016745525006,462.6238545934848) translate(41.64130425644974 29.072188306579406)"/><use xlink:href="#y" transform="matrix(1,0,0,1,817.016745525006,462.6238545934848) translate(96.43430360648898 29.072188306579406)"/></g><path d="M812.02 559.5c0-3.32 2.68-6 6-6H945.4c3.3 0 6 2.68 6 6v32.88c0 3.32-2.7 6-6 6H818c-3.32 0-6-2.68-6-6z" stroke="#000" stroke-opacity="0" stroke-width="3" fill="#fff" fill-opacity="0"/><g><use xlink:href="#v" transform="matrix(1,0,0,1,817.016745525006,558.4953533327204) translate(4.170483772414066 11.628875322631762)"/><use xlink:href="#w" transform="matrix(1,0,0,1,817.016745525006,558.4953533327204) translate(77.45662512858297 11.628875322631762)"/><use xlink:href="#x" transform="matrix(1,0,0,1,817.016745525006,558.4953533327204) translate(25.490088530572294 29.072188306579406)"/><use xlink:href="#m" transform="matrix(1,0,0,1,817.016745525006,558.4953533327204) translate(41.64130425644974 29.072188306579406)"/><use xlink:href="#z" transform="matrix(1,0,0,1,817.016745525006,558.4953533327204) translate(96.43430360648898 29.072188306579406)"/></g><path d="M800 655.37c0-3.32 2.7-6 6-6h127.37c3.32 0 6 2.68 6 6v32.88c0 3.32-2.68 6-6 6H806c-3.3 0-6-2.68-6-6z" stroke="#000" stroke-opacity="0" stroke-width="3" fill="#fff" fill-opacity="0"/><g><use xlink:href="#j" transform="matrix(1,0,0,1,805,654.3668520719511) translate(14.588017915605022 11.628875322631762)"/><use xlink:href="#k" transform="matrix(1,0,0,1,805,654.3668520719511) translate(50.88787525951458 11.628875322631762)"/><use xlink:href="#l" transform="matrix(1,0,0,1,805,654.3668520719511) translate(103.2985702899869 11.628875322631762)"/><use xlink:href="#m" transform="matrix(1,0,0,1,805,654.3668520719511) translate(33.56569639351102 29.072188306579406)"/><use xlink:href="#z" transform="matrix(1,0,0,1,805,654.3668520719511) translate(88.35869574355027 29.072188306579406)"/></g><path d="M623.33 454.12H674c3.3 0 6 2.7 6 6v179.2c0 3.33 2.7 6 6 6h27.5" stroke="#000" stroke-width="2" fill="none"/><path d="M623.36 455.12h-1.07l.03-1-.06-1h1.1z"/><path d="M728.78 645.33l-14.27 4.64v-9.27z" stroke="#000" stroke-width="2"/><path d="M623.33 454.12H674c3.3 0 6 2.7 6 6v83.68c0 3.3 2.7 6 6 6h27.5M623.36 454.12h-1.03" stroke="#000" stroke-width="2" fill="none"/><path d="M728.78 549.8l-14.27 4.63v-9.27z" stroke="#000" stroke-width="2"/><path d="M239.58 426.77c0-3.3 2.68-6 6-6h260.75c3.3 0 6 2.7 6 6v60.56c0 3.3-2.7 6-6 6H245.58c-3.32 0-6-2.7-6-6z" stroke="#000" stroke-opacity="0" stroke-width="3" fill="#fff" fill-opacity="0"/><g><use xlink:href="#A" transform="matrix(1,0,0,1,244.575113125077,425.77010464834) translate(47.7654320987655 21.715277777777768)"/><use xlink:href="#B" transform="matrix(1,0,0,1,244.575113125077,425.77010464834) translate(81.6234567901235 48.381944444444414)"/></g><defs><path fill="#333" d="M24 0v-248h195v40H76v63h132v40H76v65h150V0H24" id="C"/><path fill="#333" d="M135-194c87-1 58 113 63 194h-50c-7-57 23-157-34-157-59 0-34 97-39 157H25l-1-190h47c2 12-1 28 3 38 12-26 28-41 61-42" id="D"/><path fill="#333" d="M195-6C206 82 75 100 31 46c-4-6-6-13-8-21l49-6c3 16 16 24 34 25 40 0 42-37 40-79-11 22-30 35-61 35-53 0-70-43-70-97 0-56 18-96 73-97 30 0 46 14 59 34l2-30h47zm-90-29c32 0 41-27 41-63 0-35-9-62-40-62-32 0-39 29-40 63 0 36 9 62 39 62" id="E"/><path fill="#333" d="M25-224v-37h50v37H25zM25 0v-190h50V0H25" id="F"/><path fill="#333" d="M185-48c-13 30-37 53-82 52C43 2 14-33 14-96s30-98 90-98c62 0 83 45 84 108H66c0 31 8 55 39 56 18 0 30-7 34-22zm-45-69c5-46-57-63-70-21-2 6-4 13-4 21h74" id="G"/><g id="b"><use transform="matrix(0.08307875080876313,0,0,0.08307875080876313,0,0)" xlink:href="#C"/><use transform="matrix(0.08307875080876313,0,0,0.08307875080876313,19.93890019410315,0)" xlink:href="#D"/><use transform="matrix(0.08307875080876313,0,0,0.08307875080876313,38.13314662122228,0)" xlink:href="#E"/><use transform="matrix(0.08307875080876313,0,0,0.08307875080876313,56.327393048341406,0)" xlink:href="#F"/><use transform="matrix(0.08307875080876313,0,0,0.08307875080876313,64.63526812921772,0)" xlink:href="#D"/><use transform="matrix(0.08307875080876313,0,0,0.08307875080876313,82.82951455633685,0)" xlink:href="#G"/></g><path fill="#333" d="M182-130c37 4 62 22 62 59C244 23 116-4 24 0v-248c84 5 203-23 205 63 0 31-19 50-47 55zM76-148c40-3 101 13 101-30 0-44-60-28-101-31v61zm0 110c48-3 116 14 116-37 0-48-69-32-116-35v72" id="H"/><path fill="#333" d="M110-194c64 0 96 36 96 99 0 64-35 99-97 99-61 0-95-36-95-99 0-62 34-99 96-99zm-1 164c35 0 45-28 45-65 0-40-10-65-43-65-34 0-45 26-45 65 0 36 10 65 43 65" id="I"/><path fill="#333" d="M220-157c-53 9-28 100-34 157h-49v-107c1-27-5-49-29-50C55-147 81-57 75 0H25l-1-190h47c2 12-1 28 3 38 10-53 101-56 108 0 13-22 24-43 59-42 82 1 51 116 57 194h-49v-107c-1-25-5-48-29-50" id="J"/><path fill="#333" d="M115-3C79 11 28 4 28-45v-112H4v-33h27l15-45h31v45h36v33H77v99c-1 23 16 31 38 25v30" id="K"/><path fill="#333" d="M135-150c-39-12-60 13-60 57V0H25l-1-190h47c2 13-1 29 3 40 6-28 27-53 61-41v41" id="L"/><path fill="#333" d="M190-63c-7 42-38 67-86 67-59 0-84-38-90-98-12-110 154-137 174-36l-49 2c-2-19-15-32-35-32-30 0-35 28-38 64-6 74 65 87 74 30" id="M"/><path fill="#333" d="M137-138c1-29-70-34-71-4 15 46 118 7 119 86 1 83-164 76-172 9l43-7c4 19 20 25 44 25 33 8 57-30 24-41C81-84 22-81 20-136c-2-80 154-74 161-7" id="N"/><g id="c"><use transform="matrix(0.06172839506172835,0,0,0.06172839506172835,0,0)" xlink:href="#H"/><use transform="matrix(0.06172839506172835,0,0,0.06172839506172835,15.987654320987643,0)" xlink:href="#F"/><use transform="matrix(0.06172839506172835,0,0,0.06172839506172835,22.16049382716048,0)" xlink:href="#I"/><use transform="matrix(0.06172839506172835,0,0,0.06172839506172835,35.679012345678984,0)" xlink:href="#J"/><use transform="matrix(0.06172839506172835,0,0,0.06172839506172835,55.43209876543206,0)" xlink:href="#G"/><use transform="matrix(0.06172839506172835,0,0,0.06172839506172835,67.77777777777773,0)" xlink:href="#K"/><use transform="matrix(0.06172839506172835,0,0,0.06172839506172835,75.1234567901234,0)" xlink:href="#L"/><use transform="matrix(0.06172839506172835,0,0,0.06172839506172835,83.76543209876537,0)" xlink:href="#F"/><use transform="matrix(0.06172839506172835,0,0,0.06172839506172835,89.93827160493821,0)" xlink:href="#M"/><use transform="matrix(0.06172839506172835,0,0,0.06172839506172835,102.28395061728388,0)" xlink:href="#N"/></g><path fill="#333" d="M169-182c-1-43-94-46-97-3 18 66 151 10 154 114 3 95-165 93-204 36-6-8-10-19-12-30l50-8c3 46 112 56 116 5-17-69-150-10-154-114-4-87 153-88 188-35 5 8 8 18 10 28" id="O"/><path fill="#333" d="M85 4C-2 5 27-109 22-190h50c7 57-23 150 33 157 60-5 35-97 40-157h50l1 190h-47c-2-12 1-28-3-38-12 25-28 42-61 42" id="P"/><path fill="#333" d="M135-194c53 0 70 44 70 98 0 56-19 98-73 100-31 1-45-17-59-34 3 33 2 69 2 105H25l-1-265h48c2 10 0 23 3 31 11-24 29-35 60-35zM114-30c33 0 39-31 40-66 0-38-9-64-40-64-56 0-55 130 0 130" id="Q"/><path fill="#333" d="M25 0v-261h50V0H25" id="R"/><g id="d"><use transform="matrix(0.06172839506172835,0,0,0.06172839506172835,0,0)" xlink:href="#O"/><use transform="matrix(0.06172839506172835,0,0,0.06172839506172835,14.814814814814804,0)" xlink:href="#P"/><use transform="matrix(0.06172839506172835,0,0,0.06172839506172835,28.333333333333314,0)" xlink:href="#Q"/><use transform="matrix(0.06172839506172835,0,0,0.06172839506172835,41.85185185185182,0)" xlink:href="#Q"/><use transform="matrix(0.06172839506172835,0,0,0.06172839506172835,55.370370370370324,0)" xlink:href="#R"/><use transform="matrix(0.06172839506172835,0,0,0.06172839506172835,61.54320987654316,0)" xlink:href="#F"/><use transform="matrix(0.06172839506172835,0,0,0.06172839506172835,67.716049382716,0)" xlink:href="#G"/><use transform="matrix(0.06172839506172835,0,0,0.06172839506172835,80.06172839506166,0)" xlink:href="#L"/><use transform="matrix(0.06172839506172835,0,0,0.06172839506172835,88.70370370370364,0)" xlink:href="#N"/></g><path fill="#333" d="M199 0l-22-63H83L61 0H9l90-248h61L250 0h-51zm-33-102l-36-108c-10 38-24 72-36 108h72" id="S"/><path fill="#333" d="M24-248c93 1 206-16 204 79-1 75-69 88-152 82V0H24v-248zm52 121c47 0 100 7 100-41 0-47-54-39-100-39v80" id="T"/><path fill="#333" d="M24 0v-248h52V0H24" id="U"/><g id="e"><use transform="matrix(0.06172839506172839,0,0,0.06172839506172839,0,0)" xlink:href="#S"/><use transform="matrix(0.06172839506172839,0,0,0.06172839506172839,15.987654320987653,0)" xlink:href="#T"/><use transform="matrix(0.06172839506172839,0,0,0.06172839506172839,30.80246913580247,0)" xlink:href="#U"/></g><path fill="#333" d="M67-125c0 54 23 88 75 88 28 0 53-7 68-21v-34h-60v-39h108v91C232-14 192 4 140 4 58 4 20-42 15-125 8-236 126-280 215-234c19 10 29 26 37 47l-47 15c-11-23-29-39-63-39-53 1-75 33-75 86" id="V"/><path fill="#333" d="M133-34C117-15 103 5 69 4 32 3 11-16 11-54c-1-60 55-63 116-61 1-26-3-47-28-47-18 1-26 9-28 27l-52-2c7-38 36-58 82-57s74 22 75 68l1 82c-1 14 12 18 25 15v27c-30 8-71 5-69-32zm-48 3c29 0 43-24 42-57-32 0-66-3-65 30 0 17 8 27 23 27" id="W"/><path fill="#333" d="M231 0h-52l-39-155L100 0H48L-1-190h46L77-45c9-52 24-97 36-145h53l37 145 32-145h46" id="X"/><path fill="#333" d="M123 10C108 53 80 86 19 72V37c35 8 53-11 59-39L3-190h52l48 148c12-52 28-100 44-148h51" id="Y"/><g id="f"><use transform="matrix(0.06172839506172839,0,0,0.06172839506172839,0,0)" xlink:href="#V"/><use transform="matrix(0.06172839506172839,0,0,0.06172839506172839,17.28395061728395,0)" xlink:href="#W"/><use transform="matrix(0.06172839506172839,0,0,0.06172839506172839,29.629629629629626,0)" xlink:href="#K"/><use transform="matrix(0.06172839506172839,0,0,0.06172839506172839,36.9753086419753,0)" xlink:href="#G"/><use transform="matrix(0.06172839506172839,0,0,0.06172839506172839,49.32098765432098,0)" xlink:href="#X"/><use transform="matrix(0.06172839506172839,0,0,0.06172839506172839,66.60493827160494,0)" xlink:href="#W"/><use transform="matrix(0.06172839506172839,0,0,0.06172839506172839,78.95061728395062,0)" xlink:href="#Y"/></g><g id="g"><use transform="matrix(0.06172839506172839,0,0,0.06172839506172839,0,0)" xlink:href="#H"/><use transform="matrix(0.06172839506172839,0,0,0.06172839506172839,15.987654320987653,0)" xlink:href="#F"/><use transform="matrix(0.06172839506172839,0,0,0.06172839506172839,22.160493827160494,0)" xlink:href="#I"/><use transform="matrix(0.06172839506172839,0,0,0.06172839506172839,35.67901234567901,0)" xlink:href="#J"/><use transform="matrix(0.06172839506172839,0,0,0.06172839506172839,55.4320987654321,0)" xlink:href="#G"/><use transform="matrix(0.06172839506172839,0,0,0.06172839506172839,67.77777777777779,0)" xlink:href="#K"/><use transform="matrix(0.06172839506172839,0,0,0.06172839506172839,75.12345679012347,0)" xlink:href="#L"/><use transform="matrix(0.06172839506172839,0,0,0.06172839506172839,83.76543209876544,0)" xlink:href="#F"/><use transform="matrix(0.06172839506172839,0,0,0.06172839506172839,89.93827160493828,0)" xlink:href="#M"/><use transform="matrix(0.06172839506172839,0,0,0.06172839506172839,102.28395061728396,0)" xlink:href="#N"/></g><path fill="#333" d="M136-208V0H84v-208H4v-40h212v40h-80" id="Z"/><g id="h"><use transform="matrix(0.06172839506172839,0,0,0.06172839506172839,0,0)" xlink:href="#Z"/><use transform="matrix(0.06172839506172839,0,0,0.06172839506172839,11.851851851851851,0)" xlink:href="#Y"/><use transform="matrix(0.06172839506172839,0,0,0.06172839506172839,24.19753086419753,0)" xlink:href="#Q"/><use transform="matrix(0.06172839506172839,0,0,0.06172839506172839,37.71604938271605,0)" xlink:href="#G"/></g><path fill="#333" d="M186 0v-106H76V0H24v-248h52v99h110v-99h50V0h-50" id="aa"/><path fill="#333" d="M88-194c31-1 46 15 58 34l-1-101h50l1 261h-48c-2-10 0-23-3-31C134-8 116 4 84 4 32 4 16-41 15-95c0-56 19-97 73-99zm17 164c33 0 40-30 41-66 1-37-9-64-41-64s-38 30-39 65c0 43 13 65 39 65" id="ab"/><g id="i"><use transform="matrix(0.06172839506172839,0,0,0.06172839506172839,0,0)" xlink:href="#aa"/><use transform="matrix(0.06172839506172839,0,0,0.06172839506172839,15.987654320987653,0)" xlink:href="#W"/><use transform="matrix(0.06172839506172839,0,0,0.06172839506172839,28.333333333333332,0)" xlink:href="#D"/><use transform="matrix(0.06172839506172839,0,0,0.06172839506172839,41.85185185185185,0)" xlink:href="#ab"/><use transform="matrix(0.06172839506172839,0,0,0.06172839506172839,55.37037037037037,0)" xlink:href="#R"/><use transform="matrix(0.06172839506172839,0,0,0.06172839506172839,61.54320987654321,0)" xlink:href="#G"/><use transform="matrix(0.06172839506172839,0,0,0.06172839506172839,73.88888888888889,0)" xlink:href="#L"/><use transform="matrix(0.06172839506172839,0,0,0.06172839506172839,82.53086419753086,0)" xlink:href="#N"/></g><path fill="#333" d="M63-220v92h138v28H63V0H30v-248h175v28H63" id="ac"/><path fill="#333" d="M141-36C126-15 110 5 73 4 37 3 15-17 15-53c-1-64 63-63 125-63 3-35-9-54-41-54-24 1-41 7-42 31l-33-3c5-37 33-52 76-52 45 0 72 20 72 64v82c-1 20 7 32 28 27v20c-31 9-61-2-59-35zM48-53c0 20 12 33 32 33 41-3 63-29 60-74-43 2-92-5-92 41" id="ad"/><path fill="#333" d="M96-169c-40 0-48 33-48 73s9 75 48 75c24 0 41-14 43-38l32 2c-6 37-31 61-74 61-59 0-76-41-82-99-10-93 101-131 147-64 4 7 5 14 7 22l-32 3c-4-21-16-35-41-35" id="ae"/><path fill="#333" d="M100-194c63 0 86 42 84 106H49c0 40 14 67 53 68 26 1 43-12 49-29l28 8c-11 28-37 45-77 45C44 4 14-33 15-96c1-61 26-98 85-98zm52 81c6-60-76-77-97-28-3 7-6 17-6 28h103" id="af"/><g id="j"><use transform="matrix(0.040378039314693616,0,0,0.040378039314693616,0,0)" xlink:href="#ac"/><use transform="matrix(0.040378039314693616,0,0,0.040378039314693616,8.842790609917902,0)" xlink:href="#ad"/><use transform="matrix(0.040378039314693616,0,0,0.040378039314693616,16.918398472856623,0)" xlink:href="#ae"/><use transform="matrix(0.040378039314693616,0,0,0.040378039314693616,24.186445549501475,0)" xlink:href="#af"/></g><path fill="#333" d="M106-169C34-169 62-67 57 0H25v-261h32l-1 103c12-21 28-36 61-36 89 0 53 116 60 194h-32v-121c2-32-8-49-39-48" id="ag"/><path fill="#333" d="M117-194c89-4 53 116 60 194h-32v-121c0-31-8-49-39-48C34-167 62-67 57 0H25l-1-190h30c1 10-1 24 2 32 11-22 29-35 61-36" id="ah"/><path fill="#333" d="M85-194c31 0 48 13 60 33l-1-100h32l1 261h-30c-2-10 0-23-3-31C134-8 116 4 85 4 32 4 16-35 15-94c0-66 23-100 70-100zm9 24c-40 0-46 34-46 75 0 40 6 74 45 74 42 0 51-32 51-76 0-42-9-74-50-73" id="ai"/><path fill="#333" d="M24 0v-261h32V0H24" id="aj"/><path fill="#333" d="M114-163C36-179 61-72 57 0H25l-1-190h30c1 12-1 29 2 39 6-27 23-49 58-41v29" id="ak"/><g id="k"><use transform="matrix(0.040378039314693616,0,0,0.040378039314693616,0,0)" xlink:href="#ag"/><use transform="matrix(0.040378039314693616,0,0,0.040378039314693616,8.075607862938723,0)" xlink:href="#ad"/><use transform="matrix(0.040378039314693616,0,0,0.040378039314693616,16.151215725877446,0)" xlink:href="#ah"/><use transform="matrix(0.040378039314693616,0,0,0.040378039314693616,24.226823588816163,0)" xlink:href="#ai"/><use transform="matrix(0.040378039314693616,0,0,0.040378039314693616,32.30243145175489,0)" xlink:href="#aj"/><use transform="matrix(0.040378039314693616,0,0,0.040378039314693616,35.49229655761569,0)" xlink:href="#af"/><use transform="matrix(0.040378039314693616,0,0,0.040378039314693616,43.56790442055441,0)" xlink:href="#ak"/></g><path fill="#333" d="M59-47c-2 24 18 29 38 22v24C64 9 27 4 27-40v-127H5v-23h24l9-43h21v43h35v23H59v120" id="al"/><path fill="#333" d="M100-194c62-1 85 37 85 99 1 63-27 99-86 99S16-35 15-95c0-66 28-99 85-99zM99-20c44 1 53-31 53-75 0-43-8-75-51-75s-53 32-53 75 10 74 51 75" id="am"/><g id="l"><use transform="matrix(0.040378039314693616,0,0,0.040378039314693616,0,0)" xlink:href="#al"/><use transform="matrix(0.040378039314693616,0,0,0.040378039314693616,4.0378039314693615,0)" xlink:href="#am"/></g><path fill="#333" d="M135-143c-3-34-86-38-87 0 15 53 115 12 119 90S17 21 10-45l28-5c4 36 97 45 98 0-10-56-113-15-118-90-4-57 82-63 122-42 12 7 21 19 24 35" id="an"/><path fill="#333" d="M84 4C-5 8 30-112 23-190h32v120c0 31 7 50 39 49 72-2 45-101 50-169h31l1 190h-30c-1-10 1-25-2-33-11 22-28 36-60 37" id="ao"/><path fill="#333" d="M115-194c55 1 70 41 70 98S169 2 115 4C84 4 66-9 55-30l1 105H24l-1-265h31l2 30c10-21 28-34 59-34zm-8 174c40 0 45-34 45-75s-6-73-45-74c-42 0-51 32-51 76 0 43 10 73 51 73" id="ap"/><path fill="#333" d="M24-231v-30h32v30H24zM24 0v-190h32V0H24" id="aq"/><g id="m"><use transform="matrix(0.040378039314693616,0,0,0.040378039314693616,0,0)" xlink:href="#an"/><use transform="matrix(0.040378039314693616,0,0,0.040378039314693616,7.268047076644851,0)" xlink:href="#ao"/><use transform="matrix(0.040378039314693616,0,0,0.040378039314693616,15.343654939583573,0)" xlink:href="#ap"/><use transform="matrix(0.040378039314693616,0,0,0.040378039314693616,23.419262802522297,0)" xlink:href="#ap"/><use transform="matrix(0.040378039314693616,0,0,0.040378039314693616,31.494870665461022,0)" xlink:href="#aj"/><use transform="matrix(0.040378039314693616,0,0,0.040378039314693616,34.68473577132182,0)" xlink:href="#aq"/><use transform="matrix(0.040378039314693616,0,0,0.040378039314693616,37.874600877182615,0)" xlink:href="#af"/><use transform="matrix(0.040378039314693616,0,0,0.040378039314693616,45.95020874012135,0)" xlink:href="#ak"/></g><path fill="#333" d="M27 0v-27h64v-190l-56 39v-29l58-41h29v221h61V0H27" id="ar"/><use transform="matrix(0.040378039314693616,0,0,0.040378039314693616,0,0)" xlink:href="#ar" id="n"/><path fill="#5e5e5e" d="M160-131c35 5 61 23 61 61C221 17 115-2 30 0v-248c76 3 177-17 177 60 0 33-19 50-47 57zm-97-11c50-1 110 9 110-42 0-47-63-36-110-37v79zm0 115c55-2 124 14 124-45 0-56-70-42-124-44v89" id="as"/><path fill="#5e5e5e" d="M24-231v-30h32v30H24zM24 0v-190h32V0H24" id="at"/><path fill="#5e5e5e" d="M100-194c62-1 85 37 85 99 1 63-27 99-86 99S16-35 15-95c0-66 28-99 85-99zM99-20c44 1 53-31 53-75 0-43-8-75-51-75s-53 32-53 75 10 74 51 75" id="au"/><path fill="#5e5e5e" d="M210-169c-67 3-38 105-44 169h-31v-121c0-29-5-50-35-48C34-165 62-65 56 0H25l-1-190h30c1 10-1 24 2 32 10-44 99-50 107 0 11-21 27-35 58-36 85-2 47 119 55 194h-31v-121c0-29-5-49-35-48" id="av"/><path fill="#5e5e5e" d="M100-194c63 0 86 42 84 106H49c0 40 14 67 53 68 26 1 43-12 49-29l28 8c-11 28-37 45-77 45C44 4 14-33 15-96c1-61 26-98 85-98zm52 81c6-60-76-77-97-28-3 7-6 17-6 28h103" id="aw"/><path fill="#5e5e5e" d="M59-47c-2 24 18 29 38 22v24C64 9 27 4 27-40v-127H5v-23h24l9-43h21v43h35v23H59v120" id="ax"/><path fill="#5e5e5e" d="M114-163C36-179 61-72 57 0H25l-1-190h30c1 12-1 29 2 39 6-27 23-49 58-41v29" id="ay"/><path fill="#5e5e5e" d="M96-169c-40 0-48 33-48 73s9 75 48 75c24 0 41-14 43-38l32 2c-6 37-31 61-74 61-59 0-76-41-82-99-10-93 101-131 147-64 4 7 5 14 7 22l-32 3c-4-21-16-35-41-35" id="az"/><g id="o"><use transform="matrix(0.05105321718821099,0,0,0.05105321718821099,0,0)" xlink:href="#as"/><use transform="matrix(0.05105321718821099,0,0,0.05105321718821099,12.252772125170639,0)" xlink:href="#at"/><use transform="matrix(0.05105321718821099,0,0,0.05105321718821099,16.285976283039307,0)" xlink:href="#au"/><use transform="matrix(0.05105321718821099,0,0,0.05105321718821099,26.496619720681505,0)" xlink:href="#av"/><use transform="matrix(0.05105321718821099,0,0,0.05105321718821099,41.761531659956596,0)" xlink:href="#aw"/><use transform="matrix(0.05105321718821099,0,0,0.05105321718821099,51.97217509759879,0)" xlink:href="#ax"/><use transform="matrix(0.05105321718821099,0,0,0.05105321718821099,57.07749681641989,0)" xlink:href="#ay"/><use transform="matrix(0.05105321718821099,0,0,0.05105321718821099,63.152829661817,0)" xlink:href="#at"/><use transform="matrix(0.05105321718821099,0,0,0.05105321718821099,67.18603381968568,0)" xlink:href="#az"/></g><path fill="#5e5e5e" d="M30-248c118-7 216 8 213 122C240-48 200 0 122 0H30v-248zM63-27c89 8 146-16 146-99s-60-101-146-95v194" id="aA"/><path fill="#5e5e5e" d="M141-36C126-15 110 5 73 4 37 3 15-17 15-53c-1-64 63-63 125-63 3-35-9-54-41-54-24 1-41 7-42 31l-33-3c5-37 33-52 76-52 45 0 72 20 72 64v82c-1 20 7 32 28 27v20c-31 9-61-2-59-35zM48-53c0 20 12 33 32 33 41-3 63-29 60-74-43 2-92-5-92 41" id="aB"/><g id="p"><use transform="matrix(0.05105321718821099,0,0,0.05105321718821099,0,0)" xlink:href="#aA"/><use transform="matrix(0.05105321718821099,0,0,0.05105321718821099,13.222783251746648,0)" xlink:href="#aB"/><use transform="matrix(0.05105321718821099,0,0,0.05105321718821099,23.433426689388845,0)" xlink:href="#ax"/><use transform="matrix(0.05105321718821099,0,0,0.05105321718821099,28.538748408209944,0)" xlink:href="#aB"/></g><path fill="#5e5e5e" d="M169-182c-1-43-94-46-97-3 18 66 151 10 154 114 3 95-165 93-204 36-6-8-10-19-12-30l50-8c3 46 112 56 116 5-17-69-150-10-154-114-4-87 153-88 188-35 5 8 8 18 10 28" id="aC"/><path fill="#5e5e5e" d="M85 4C-2 5 27-109 22-190h50c7 57-23 150 33 157 60-5 35-97 40-157h50l1 190h-47c-2-12 1-28-3-38-12 25-28 42-61 42" id="aD"/><path fill="#5e5e5e" d="M135-194c53 0 70 44 70 98 0 56-19 98-73 100-31 1-45-17-59-34 3 33 2 69 2 105H25l-1-265h48c2 10 0 23 3 31 11-24 29-35 60-35zM114-30c33 0 39-31 40-66 0-38-9-64-40-64-56 0-55 130 0 130" id="aE"/><path fill="#5e5e5e" d="M25 0v-261h50V0H25" id="aF"/><path fill="#5e5e5e" d="M25-224v-37h50v37H25zM25 0v-190h50V0H25" id="aG"/><path fill="#5e5e5e" d="M185-48c-13 30-37 53-82 52C43 2 14-33 14-96s30-98 90-98c62 0 83 45 84 108H66c0 31 8 55 39 56 18 0 30-7 34-22zm-45-69c5-46-57-63-70-21-2 6-4 13-4 21h74" id="aH"/><path fill="#5e5e5e" d="M135-150c-39-12-60 13-60 57V0H25l-1-190h47c2 13-1 29 3 40 6-28 27-53 61-41v41" id="aI"/><g id="q"><use transform="matrix(0.05105321718821099,0,0,0.05105321718821099,0,0)" xlink:href="#aC"/><use transform="matrix(0.05105321718821099,0,0,0.05105321718821099,12.252772125170639,0)" xlink:href="#aD"/><use transform="matrix(0.05105321718821099,0,0,0.05105321718821099,23.433426689388845,0)" xlink:href="#aE"/><use transform="matrix(0.05105321718821099,0,0,0.05105321718821099,34.614081253607054,0)" xlink:href="#aE"/><use transform="matrix(0.05105321718821099,0,0,0.05105321718821099,45.79473581782526,0)" xlink:href="#aF"/><use transform="matrix(0.05105321718821099,0,0,0.05105321718821099,50.900057536646365,0)" xlink:href="#aG"/><use transform="matrix(0.05105321718821099,0,0,0.05105321718821099,56.005379255467474,0)" xlink:href="#aH"/><use transform="matrix(0.05105321718821099,0,0,0.05105321718821099,66.21602269310966,0)" xlink:href="#aI"/></g><path fill="#5e5e5e" d="M23 0v-37h61v-169l-59 37v-38l62-41h46v211h57V0H23" id="aJ"/><use transform="matrix(0.05105321718821099,0,0,0.05105321718821099,0,0)" xlink:href="#aJ" id="r"/><path fill="#5e5e5e" d="M182-182c0 78-84 86-111 141h115V0H12c-6-101 99-100 120-180 1-22-12-31-33-32-23 0-32 14-35 34l-49-3c5-45 32-70 84-70 51 0 83 22 83 69" id="aK"/><use transform="matrix(0.05105321718821099,0,0,0.05105321718821099,0,0)" xlink:href="#aK" id="s"/><path fill="#5e5e5e" d="M128-127c34 4 56 21 59 58 7 91-148 94-172 28-4-9-6-17-7-26l51-5c1 24 16 35 40 36 23 0 39-12 38-36-1-31-31-36-65-34v-40c32 2 59-3 59-33 0-20-13-33-34-33s-33 13-35 32l-50-3c6-44 37-68 86-68 50 0 83 20 83 66 0 35-22 52-53 58" id="aL"/><use transform="matrix(0.05105321718821099,0,0,0.05105321718821099,0,0)" xlink:href="#aL" id="t"/><path fill="#333" d="M137 0h-34L2-248h35l83 218 83-218h36" id="aM"/><g id="u"><use transform="matrix(0.040378039314693616,0,0,0.040378039314693616,0,0)" xlink:href="#aM"/><use transform="matrix(0.040378039314693616,0,0,0.040378039314693616,8.883168649232594,0)" xlink:href="#am"/><use transform="matrix(0.040378039314693616,0,0,0.040378039314693616,16.95877651217132,0)" xlink:href="#aq"/><use transform="matrix(0.040378039314693616,0,0,0.040378039314693616,20.148641618032116,0)" xlink:href="#ae"/><use transform="matrix(0.040378039314693616,0,0,0.040378039314693616,27.416688694676964,0)" xlink:href="#af"/></g><path fill="#333" d="M177-190C167-65 218 103 67 71c-23-6-38-20-44-43l32-5c15 47 100 32 89-28v-30C133-14 115 1 83 1 29 1 15-40 15-95c0-56 16-97 71-98 29-1 48 16 59 35 1-10 0-23 2-32h30zM94-22c36 0 50-32 50-73 0-42-14-75-50-75-39 0-46 34-46 75s6 73 46 73" id="aN"/><g id="v"><use transform="matrix(0.040378039314693616,0,0,0.040378039314693616,0,0)" xlink:href="#ac"/><use transform="matrix(0.040378039314693616,0,0,0.040378039314693616,8.842790609917902,0)" xlink:href="#aq"/><use transform="matrix(0.040378039314693616,0,0,0.040378039314693616,12.032655715778697,0)" xlink:href="#ah"/><use transform="matrix(0.040378039314693616,0,0,0.040378039314693616,20.10826357871742,0)" xlink:href="#aN"/><use transform="matrix(0.040378039314693616,0,0,0.040378039314693616,28.183871441656144,0)" xlink:href="#af"/><use transform="matrix(0.040378039314693616,0,0,0.040378039314693616,36.25947930459487,0)" xlink:href="#ak"/><use transform="matrix(0.040378039314693616,0,0,0.040378039314693616,41.06446598304341,0)" xlink:href="#ap"/><use transform="matrix(0.040378039314693616,0,0,0.040378039314693616,49.14007384598214,0)" xlink:href="#ak"/><use transform="matrix(0.040378039314693616,0,0,0.040378039314693616,53.94506052443068,0)" xlink:href="#aq"/><use transform="matrix(0.040378039314693616,0,0,0.040378039314693616,57.13492563029148,0)" xlink:href="#ah"/><use transform="matrix(0.040378039314693616,0,0,0.040378039314693616,65.2105334932302,0)" xlink:href="#al"/></g><g id="w"><use transform="matrix(0.040378039314693616,0,0,0.040378039314693616,0,0)" xlink:href="#ag"/><use transform="matrix(0.040378039314693616,0,0,0.040378039314693616,8.075607862938723,0)" xlink:href="#ad"/><use transform="matrix(0.040378039314693616,0,0,0.040378039314693616,16.151215725877446,0)" xlink:href="#ah"/><use transform="matrix(0.040378039314693616,0,0,0.040378039314693616,24.226823588816163,0)" xlink:href="#ai"/><use transform="matrix(0.040378039314693616,0,0,0.040378039314693616,32.30243145175489,0)" xlink:href="#aj"/><use transform="matrix(0.040378039314693616,0,0,0.040378039314693616,35.49229655761569,0)" xlink:href="#af"/><use transform="matrix(0.040378039314693616,0,0,0.040378039314693616,43.56790442055441,0)" xlink:href="#ak"/></g><g id="x"><use transform="matrix(0.040378039314693616,0,0,0.040378039314693616,0,0)" xlink:href="#al"/><use transform="matrix(0.040378039314693616,0,0,0.040378039314693616,4.0378039314693615,0)" xlink:href="#am"/></g><path fill="#333" d="M101-251c82-7 93 87 43 132L82-64C71-53 59-42 53-27h129V0H18c2-99 128-94 128-182 0-28-16-43-45-43s-46 15-49 41l-32-3c6-41 34-60 81-64" id="aO"/><use transform="matrix(0.040378039314693616,0,0,0.040378039314693616,0,0)" xlink:href="#aO" id="y"/><path fill="#333" d="M126-127c33 6 58 20 58 59 0 88-139 92-164 29-3-8-5-16-6-25l32-3c6 27 21 44 54 44 32 0 52-15 52-46 0-38-36-46-79-43v-28c39 1 72-4 72-42 0-27-17-43-46-43-28 0-47 15-49 41l-32-3c6-42 35-63 81-64 48-1 79 21 79 65 0 36-21 52-52 59" id="aP"/><use transform="matrix(0.040378039314693616,0,0,0.040378039314693616,0,0)" xlink:href="#aP" id="z"/><path fill="#333" d="M67-125c0 53 21 87 73 88 37 1 54-22 65-47l45 17C233-25 199 4 140 4 58 4 20-42 15-125 8-235 124-281 211-232c18 10 29 29 36 50l-46 12c-8-25-30-41-62-41-52 0-71 34-72 86" id="aQ"/><g id="A"><use transform="matrix(0.06172839506172835,0,0,0.06172839506172835,0,0)" xlink:href="#aQ"/><use transform="matrix(0.06172839506172835,0,0,0.06172839506172835,15.987654320987643,0)" xlink:href="#I"/><use transform="matrix(0.06172839506172835,0,0,0.06172839506172835,29.50617283950615,0)" xlink:href="#J"/><use transform="matrix(0.06172839506172835,0,0,0.06172839506172835,49.259259259259224,0)" xlink:href="#J"/><use transform="matrix(0.06172839506172835,0,0,0.06172839506172835,69.0123456790123,0)" xlink:href="#P"/><use transform="matrix(0.06172839506172835,0,0,0.06172839506172835,82.5308641975308,0)" xlink:href="#D"/><use transform="matrix(0.06172839506172835,0,0,0.06172839506172835,96.04938271604931,0)" xlink:href="#F"/><use transform="matrix(0.06172839506172835,0,0,0.06172839506172835,102.22222222222214,0)" xlink:href="#M"/><use transform="matrix(0.06172839506172835,0,0,0.06172839506172835,114.56790123456781,0)" xlink:href="#W"/><use transform="matrix(0.06172839506172835,0,0,0.06172839506172835,126.91358024691348,0)" xlink:href="#K"/><use transform="matrix(0.06172839506172835,0,0,0.06172839506172835,134.25925925925915,0)" xlink:href="#F"/><use transform="matrix(0.06172839506172835,0,0,0.06172839506172835,140.432098765432,0)" xlink:href="#I"/><use transform="matrix(0.06172839506172835,0,0,0.06172839506172835,153.9506172839505,0)" xlink:href="#D"/></g><path fill="#333" d="M114-157C55-157 80-60 75 0H25v-261h50l-1 109c12-26 28-41 61-42 86-1 58 113 63 194h-50c-7-57 23-157-34-157" id="aR"/><g id="B"><use transform="matrix(0.06172839506172835,0,0,0.06172839506172835,0,0)" xlink:href="#aQ"/><use transform="matrix(0.06172839506172835,0,0,0.06172839506172835,15.987654320987643,0)" xlink:href="#aR"/><use transform="matrix(0.06172839506172835,0,0,0.06172839506172835,29.50617283950615,0)" xlink:href="#W"/><use transform="matrix(0.06172839506172835,0,0,0.06172839506172835,41.85185185185182,0)" xlink:href="#D"/><use transform="matrix(0.06172839506172835,0,0,0.06172839506172835,55.370370370370324,0)" xlink:href="#D"/><use transform="matrix(0.06172839506172835,0,0,0.06172839506172835,68.88888888888883,0)" xlink:href="#G"/><use transform="matrix(0.06172839506172835,0,0,0.06172839506172835,81.2345679012345,0)" xlink:href="#R"/><use transform="matrix(0.06172839506172835,0,0,0.06172839506172835,87.40740740740733,0)" xlink:href="#N"/></g></defs></g></svg>